<svg xmlns="http://www.w3.org/2000/svg" xmlns:xlink="http://www.w3.org/1999/xlink"><symbol id="icon-close" viewBox="0 0 18 18"><path d="M15.8,0L9,6.8L2.2,0L0,2.2L6.8,9L0,15.8L2.2,18L9,11.2l6.8,6.8l2.2-2.2L11.2,9L18,2.2L15.8,0z"/></symbol><symbol id="icon-key-features" viewBox="0 0 28 23"><path class="st0" d="M7.8 3.5h19.3c.5 0 .9-.4.9-.9s-.4-.9-.9-.9H7.8c-.5.1-.9.5-.9 1s.4.8.9.8zM27 10.6H7.8c-.5 0-.9.4-.9.9s.4.9.9.9h19.3c.5 0 .9-.4.9-.9s-.5-.9-1-.9zM27 19.5H7.8c-.5 0-.9.4-.9.9s.4.9.9.9h19.3c.5 0 .9-.4.9-.9s-.5-.9-1-.9zM4.4 8.9H.9c-.5 0-.9.4-.9.9v3.5c0 .5.4.9.9.9h3.5c.5 0 .9-.4.9-.9V9.8c0-.5-.4-.9-.9-.9zm-.9 3.5H1.8v-1.8h1.8l-.1 1.8zM4.4 0H.9C.4 0 0 .4 0 .9v3.5c0 .5.4.9.9.9h3.5c.5 0 .9-.4.9-.9V.9c0-.5-.4-.9-.9-.9zm-.9 3.5H1.8V1.8h1.8l-.1 1.7zM4.4 17.7H.9c-.5 0-.9.4-.9.9v3.5c0 .5.4.9.9.9h3.5c.5 0 .9-.4.9-.9v-3.5c0-.5-.4-.9-.9-.9zm-.9 3.5H1.8v-1.8h1.8l-.1 1.8z"/></symbol><symbol id="icon-life" viewBox="0 0 28 13"><path d="M26.1 1.9C25 .7 23.4 0 21.7 0c-1.7 0-3.3.7-4.5 1.9L9.6 9.8c-.9.9-2 1.4-3.2 1.4S4 10.7 3.1 9.8C1.3 8 1.3 5 3.1 3.2c.9-.9 2-1.4 3.2-1.4s2.4.5 3.2 1.4l1.6 1.5c.2.2.4.2.6.2.2 0 .5-.1.6-.3.3-.4.3-.9-.1-1.3l-1.6-1.5C9.6.7 8 0 6.3 0 4.6 0 3 .7 1.9 1.9c-2.5 2.5-2.5 6.7 0 9.2C3 12.3 4.6 13 6.3 13c1.7 0 3.3-.7 4.5-1.9l7.6-7.9c.9-.9 2-1.4 3.2-1.4s2.4.5 3.2 1.4c1.8 1.8 1.8 4.8 0 6.7-.9.9-2 1.4-3.2 1.4s-2.4-.5-3.2-1.4l-1.6-1.5c-.4-.4-.9-.4-1.3 0-.3.4-.3.9.1 1.3l1.6 1.5c1.2 1.2 2.8 1.9 4.4 1.9 1.7 0 3.3-.7 4.5-1.9 2.5-2.6 2.5-6.8 0-9.3z"/></symbol><symbol id="icon-menu" viewBox="0 0 18 18"><path d="M0 0h18v4H0zM0 14h18v4H0zM0 7h18v4H0z"/></symbol><symbol id="icon-motocolor-blue" viewBox="0 0 18 18"><path fill="#5c68b5" d="M0 0h18v9H0z"/><path fill="#adacaa" d="M0 9h18v9H0z"/></symbol><symbol id="icon-motocolor-grey" viewBox="0 0 18 18"><path fill="#545351" d="M0 0h18v9H0z"/><path fill="#adacaa" d="M0 9h18v9H0z"/></symbol><symbol id="icon-motocolor-yellow" viewBox="0 0 18 18"><path fill="#f5cc22" d="M0 0h18v9H0z"/><path fill="#383735" d="M0 9h18v9H0z"/></symbol><symbol id="icon-power" viewBox="0 0 15 28"><path d="M3.1 28c-.1 0-.3 0-.4-.1-.4-.2-.6-.6-.5-1l1.5-7.7h-2c-.3 0-.6-.1-.7-.4-.1-.2-.2-.5 0-.8l2.5-5.8H.9c-.3 0-.5-.1-.7-.3-.2-.2-.2-.5-.2-.8L3.1.6c.1-.3.5-.6.9-.6h10.1c.3 0 .6.2.8.4.1.3.1.6 0 .9l-3.7 6.6h2.5c.3 0 .6.2.8.4.2.3.1.6 0 .9L11 14.9h1.4c.3 0 .6.2.8.5.1.3.1.7-.1.9L3.8 27.7c-.2.2-.5.3-.7.3zm0-10.5h1.7c.3 0 .5.1.7.3.2.2.2.5.2.7l-1 5.3 5.9-7.2H9.4c-.3 0-.6-.2-.8-.4-.2-.3-.1-.6 0-.9l3.5-5.7H9.7c-.3 0-.6-.2-.8-.4-.2-.3-.2-.6 0-.9l3.7-6.6h-8L2 10.5h2.7c.3 0 .6.1.7.4.2.2.2.6.1.8l-2.4 5.8z"/></symbol><symbol id="icon-search" viewBox="0 0 18 18"><path d="M17.7 16.3l-2.9-2.9c1.1-1.4 1.7-3.1 1.7-5 0-4.6-3.7-8.4-8.3-8.4C3.7 0 0 3.8 0 8.4s3.7 8.4 8.3 8.4c2 0 3.8-.7 5.2-1.9l2.9 2.9c.2.2.4.3.7.3s.5-.1.7-.3c.3-.5.3-1.1-.1-1.5zM2 8.4C2 4.8 4.8 2 8.3 2s6.3 2.9 6.3 6.4c0 3.5-2.8 6.4-6.3 6.4S2 11.9 2 8.4z"/></symbol><symbol id="icon-specs" viewBox="0 0 28 26"><path class="st0" d="M27.1 24.3H.9c-.5 0-.9.4-.9.9 0 .4.4.8.9.8h26.3c.5 0 .9-.4.9-.9-.1-.4-.5-.8-1-.8zM2.6 15.6c.2 0 .4 0 .6-.1l2.6 3.6c-.4.4-.6 1-.6 1.6 0 1.4 1.2 2.6 2.6 2.6s2.6-1.2 2.6-2.6c0-.7-.3-1.4-.8-1.9l3.2-11.1h.2c.2 0 .4 0 .6-.1l3.5 4.5c-.3.4-.6 1-.6 1.6 0 1.4 1.2 2.6 2.6 2.6s2.6-1.2 2.6-2.6c0-.6-.2-1.2-.6-1.7l3.6-7h.5c1.6.2 2.8-1 2.8-2.4S26.8 0 25.4 0s-2.6 1.2-2.6 2.6c0 .6.2 1.2.6 1.7l-3.6 7h-.5c-.2 0-.4 0-.6.1l-3.5-4.5c.3-.4.6-1 .6-1.6 0-1.4-1.2-2.6-2.6-2.6s-2.6 1.2-2.6 2.6c0 .7.3 1.4.8 1.9l-3.3 11h-.2c-.2 0-.4 0-.6.1l-2.6-3.6c.4-.4.6-1 .6-1.6 0-1.4-1.2-2.6-2.6-2.6S0 11.6 0 13s1.2 2.6 2.6 2.6zm16.7-.9c-.5 0-.9-.4-.9-.9s.4-.9.9-.9.9.4.9.9c-.1.5-.5.9-.9.9zm6.1-13c.5 0 .9.4.9.9s-.4.9-.9.9-.9-.4-.9-.9.4-.9.9-.9zM13.1 4.3c.5 0 .9.4.9.9s-.4.9-.9.9-.9-.4-.9-.9c.1-.5.4-.9.9-.9zM7.9 21.7c-.5 0-.9-.4-.9-.9 0-.2.1-.4.2-.6l.4-.2c.1 0 .2-.1.3-.1.5 0 .9.4.9.9s-.4.9-.9.9zm-5.3-9.6c.5 0 .9.4.9.9 0 .2-.1.4-.2.6l-.4.3c-.1 0-.2.1-.3.1-.5 0-.9-.4-.9-.9.1-.6.4-1 .9-1z"/></symbol><symbol id="icon-speed" viewBox="0 0 30 27"><path class="st0" d="M15.9 16.9V9.3c0-.5-.4-.9-.9-.9s-.9.4-.9.9v7.6c-.5.1-1 .4-1.4.8-1.3 1.3-1.3 3.3 0 4.6 1.3 1.3 3.4 1.3 4.6 0 1.3-1.3 1.3-3.3 0-4.6-.4-.4-.9-.7-1.4-.8zM16 21c-.5.5-1.4.5-2 0-.5-.5-.5-1.4 0-2 .5-.5 1.4-.5 2 0 .5.6.5 1.5 0 2zM15 6.5c.5 0 .9-.4.9-.9V3.7c0-.5-.4-.9-.9-.9s-.9.4-.9.9v1.9c0 .5.4.9.9.9zM5.6 14H3.8c-.5 0-.9.4-.9.9s.4.9.9.9h1.9c.5 0 .9-.4.9-.9s-.5-.9-1-.9zM26.3 14h-1.9c-.5 0-.9.4-.9.9s.4.9.9.9h1.9c.5 0 .9-.4.9-.9s-.4-.9-.9-.9zM23.6 6.3c-.4-.4-1-.4-1.3 0L21 7.7c-.4.4-.4 1 0 1.3.2.2.4.3.7.3.2 0 .5-.1.7-.3l1.3-1.3c.3-.4.3-1-.1-1.4zM7.7 6.3c-.4-.3-1-.3-1.3 0-.4.4-.4 1 0 1.4L7.7 9c.2.2.4.3.7.3s.5-.1.6-.3c.4-.4.4-1 0-1.3L7.7 6.3z"/><path class="st0" d="M15 0C6.7 0 0 6.7 0 14.9c0 4.7 2.2 9.1 6 11.9.2.1.4.2.6.2h16.9c.2 0 .4-.1.6-.2 3.8-2.8 6-7.2 6-11.9C30 6.7 23.3 0 15 0zm8.1 25.1H6.9c-3.2-2.5-5-6.2-5-10.2 0-7.2 5.9-13 13.1-13s13.1 5.8 13.1 13c0 4-1.8 7.7-5 10.2z"/></symbol><symbol id="logo-footer" viewBox="0 0 214 47"><path d="M163.6 44V3h7.1v15.7h7.8V3h7.2v41h-7.2V26h-7.8v18h-7.1zM59.9 28.1L52 3h7.1l4.8 16 5.4-16h6.6l-8.1 24.3V44h-7.9V28.1zM102 44h6.3V13.1l5.5 26.8h5.9l4.8-27.3V44h7.4V3h-11.5L117 22.5 113.1 3H102v41zM198.2 27.6l3-18.3 2.9 18.3h-5.9zM207.3 3h-11l-7.4 41h6.6l1.6-9.5h8.2l1.5 9.5h7.2l-6.7-41zM144.4 27.6l3-18.3 2.9 18.3h-5.9zM153.6 3h-11l-7.4 41h6.6l1.6-9.5h8.2L153 44h7.2l-6.6-41zM82.8 27.6l3-18.3 2.9 18.3h-5.9zM92 3H81l-7.4 41h6.6l1.6-9.5H90l1.5 9.5h7.2L92 3z"/><g><path d="M37.3 16.9l-9.4 5.4-1.1-.7v-1.3l9.4-5.4-1-1.8-8.4 4.8v-1.7c0-.6-.1-1.3-.4-1.9-.3-.6-.7-1.1-1.1-1.5-.3-.2-.5-.5-.6-.9-.1-.3-.1-.7.1-1.1.1-.3.4-.6.6-.8.1-.1.2-.2.2-.3v-.4l-1.7-4.8c0-.1-.1-.1-.1-.2-.1 0-.1-.1-.2-.1s-.1 0-.2.1c-.1 0-.1.1-.1.2l-1.7 4.8v.4c0 .1.1.2.2.3.3.2.5.5.6.8.1.3.1.7.1 1.1-.1.3-.3.7-.6.9-.5.4-.9.9-1.1 1.5-.3.6-.4 1.2-.4 1.9v1.7L12 13.1l-1 1.8 9.4 5.4v1.3l-1.1.7-9.4-5.4-1 1.8 8.4 4.8-1.5.9c-.6.3-1 .8-1.4 1.3-.4.5-.6 1.1-.7 1.8-.1.3-.2.7-.5.9-.3.2-.6.4-.9.5-.4.1-.7 0-1-.1-.1-.1-.2-.1-.4 0-.1 0-.2.1-.3.2L7 32.6c0 .1-.1.1-.1.2v.2c0 .1.1.1.2.1h.2l5-.9c.1 0 .2-.1.3-.2.1-.1.1-.2.1-.3 0-.4.2-.7.4-1 .2-.3.5-.5.9-.6.3-.1.7-.1 1.1 0 .6.2 1.3.3 1.9.2.6-.1 1.3-.3 1.8-.6l1.5-.9v9.7h2.1V27.9l1.1-.7 1.1.7v10.9h2.1V29l1.5.9c.6.3 1.2.5 1.8.6.6.1 1.3 0 1.9-.2.3-.1.7-.1 1.1 0 .3.1.7.3.9.6.2.3.4.6.4 1 0 .1.1.2.1.3.1.1.2.2.3.2l5 .9h.2c.1 0 .1-.1.2-.1 0-.1.1-.1 0-.2 0-.1 0-.1-.1-.2L36.7 29c-.1-.1-.2-.2-.3-.2H36c-.3.2-.7.2-1 .1-.4-.1-.7-.2-.9-.5-.3-.2-.4-.6-.5-.9-.1-.6-.4-1.2-.7-1.8-.4-.5-.9-1-1.4-1.3l-1.5-.9 8.4-4.8-1.1-1.8zm-17 9.8l-2.8 1.6c-.3.1-.6.2-.9.1-.3-.1-.5-.3-.7-.5-.1-.3-.2-.6-.1-.9.1-.3.3-.5.5-.7l2.8-1.6 1.1.7v1.3zm2.1-10.8c0-.3.1-.6.3-.8.2-.2.5-.3.8-.3s.6.1.8.3c.2.2.3.5.3.8v3.2l-1.1.7-1.1-.7v-3.2zm2.4 8.3l-1.3.8-1.3-.8v-1.5l1.3-.8 1.3.8v1.5zm5.8 2.1c.3.1.5.4.5.7.1.3 0 .6-.1.9-.1.3-.4.5-.7.5-.3.1-.6 0-.9-.1l-2.8-1.6v-1.3l1.1-.7 2.9 1.6z"/><path d="M23.5 47c-6.2 0-12.2-2.5-16.6-6.9S0 29.7 0 23.5c0-6.2 2.5-12.2 6.9-16.6C11.3 2.5 17.3 0 23.5 0c6.2 0 12.2 2.5 16.6 6.9 4.4 4.4 6.9 10.4 6.9 16.6 0 6.2-2.5 12.2-6.9 16.6-4.4 4.4-10.4 6.9-16.6 6.9zm0-44.4C18 2.6 12.6 4.8 8.7 8.7 4.8 12.6 2.6 18 2.6 23.5s2.2 10.9 6.1 14.8c3.9 3.9 9.3 6.1 14.8 6.1s10.9-2.2 14.8-6.1c3.9-3.9 6.1-9.3 6.1-14.8s-2.2-10.9-6.1-14.8C34.4 4.8 29 2.6 23.5 2.6z"/></g></symbol><symbol id="logo-header" viewBox="0 0 108 150"><path d="M80.2 31.6L62.6 41.8l-2.2-1.2V38L78 28l-2-3.4-15.6 9v-3.2c0-1.2-.2-2.4-.8-3.4s-1.2-2-2.2-2.8c-.6-.4-.8-1-1-1.6s-.2-1.4.2-2c.2-.6.6-1.2 1.2-1.6.2-.2.2-.4.4-.6v-.6l-3.2-9c0-.2-.2-.2-.2-.4-.2 0-.2-.2-.4-.2s-.2 0-.4.2c-.2 0-.2.2-.2.4l-3.2 9v.6c0 .2.2.4.4.6.6.4 1 1 1.2 1.6s.2 1.4.2 2c-.2.6-.6 1.2-1 1.6-1 .8-1.6 1.8-2.2 2.8-.4 1-.8 2.2-.8 3.4v3.2l-15.6-9-2 3.4 17.6 10.2v2.4l-2.2 1.2-17.6-10.2-2 3.4 15.6 9-2.8 1.6c-1 .6-2 1.4-2.6 2.4s-1.2 2.2-1.4 3.2c-.2.6-.4 1.2-1 1.8-.4.4-1 .8-1.8.8-.6.2-1.4 0-2-.2-.2 0-.4-.2-.6 0-.2 0-.4.2-.6.4l-6.2 7.2c0 .2-.2.2-.2.4v.4c0 .2.2.2.2.2h.4l9.4-1.8c.2 0 .4-.2.6-.4.2-.2.2-.4.2-.6 0-.6.4-1.4.8-1.8.4-.6 1-.8 1.6-1s1.4-.2 2 0c1.2.4 2.4.6 3.6.4 1.2-.2 2.4-.4 3.4-1l2.8-1.6v18.2h3.8V52.2L54 51l2.2 1.2v20.4H60V54.4l2.8 1.6c1 .6 2.2 1 3.4 1 1.2.2 2.4 0 3.6-.4.6-.2 1.4-.2 2 0s1.2.6 1.6 1c.4.6.6 1.2.8 1.8 0 .2.2.4.2.6.2.2.4.2.6.4l9.4 1.8h.4c.2 0 .2-.2.2-.2v-.4c0-.2 0-.2-.2-.4L78.6 54c-.2-.2-.4-.4-.6-.4h-.6c-.6.2-1.2.4-2 .2-.6-.2-1.2-.4-1.8-.8-.4-.4-.8-1-1-1.8-.2-1.2-.6-2.4-1.4-3.2-.6-1-1.6-1.8-2.6-2.4L66.4 44 82 35l-1.8-3.4zM48.4 50l-5.2 3c-.4.2-1 .4-1.6.2s-1-.6-1.2-1c-.4-.6-.4-1.2-.4-1.6.2-.6.6-1 1-1.2l5.2-3 2.2 1.2V50zm3.8-20.2c0-.6.2-1.2.6-1.4.4-.4 1-.6 1.4-.6s1.2.2 1.4.6c.4.4.6 1 .6 1.4v6L54 37l-2.2-1.2v-6h.4zm4.6 15.6l-2.4 1.4-2.4-1.4v-2.8l2.4-1.4 2.4 1.4v2.8zm10.8 3.8c.4.2.8.8 1 1.2.2.6 0 1.2-.2 1.6-.2.4-.8.8-1.2 1-.6.2-1.2 0-1.6-.2L60.4 50v-2.4l2.2-1.2 5 2.8z"/><path d="M54.4 88c-11.6 0-23-4.8-31.2-12.8S10.4 55.6 10.4 44 15 21.2 23.2 12.8C31.4 4.6 42.8 0 54.4 0s23 4.6 31 12.8C93.6 21 98.2 32.4 98.2 44s-4.6 23-12.8 31.2C77.2 83.2 66 88 54.4 88zm0-83.2C44 4.8 34 9 26.8 16.4 19.4 23.6 15.2 33.8 15.2 44s4.2 20.4 11.4 27.6S44 83 54.2 83s20.4-4.2 27.6-11.4C89 64.4 93.2 54.2 93.2 44S89 23.6 81.8 16.4C74.8 9 64.6 4.8 54.4 4.8zM74.4 126v-26h4.8v10h5.2v-10h4.8v26h-4.8v-11.4h-5.2V126zM5.2 116L0 100h4.8L8 110l3.6-10H16l-5.4 15.4V126H5.2zM33.4 126h4.2v-19.6l3.6 17h4l3.2-17.4v20h4.8v-26h-7.6l-2.2 12.4-2.6-12.4h-7.4zM97.4 115.6l2-11.6 2 11.6h-4zm6.2-15.6h-7.4l-5 26h4.4l1-6h5.4l1 6h5l-4.4-26zM61.6 115.6l2-11.6 2 11.6h-4zm6.2-15.6h-7.4l-5 26h4.4l1-6h5.4l1 6H72l-4.2-26zM20.6 115.6l2-11.6 2 11.6h-4zm6-15.6h-7.2l-5 26h4.4l1-6h5.4l1 6H31l-4.4-26z"/><g><path d="M24.5 150c-.9 0-1.7-.2-2.4-.5-.6-.3-1.1-.8-1.4-1.4-.3-.6-.5-1.4-.5-2.3l2.5-.4c0 .5.1 1 .2 1.4.1.4.3.7.6.9.3.2.6.3 1 .3.5 0 .8-.1 1-.4.2-.2.3-.5.3-.9 0-.6-.2-1.1-.5-1.5-.3-.4-.7-.8-1.2-1.1l-2-1.5c-.6-.4-1-.9-1.3-1.4s-.5-1.1-.5-1.9c0-1.1.4-1.9 1.1-2.5.7-.6 1.7-.9 3-.9.7 0 1.3.1 1.8.3.5.2.9.5 1.2.8.3.3.5.7.6 1.2.1.4.2.9.3 1.4l-2.4.4c0-.4-.1-.8-.2-1.1-.1-.3-.2-.6-.4-.8-.2-.2-.5-.3-.9-.3s-.8.1-1 .4c-.2.2-.3.5-.3.9 0 .5.1.8.3 1.1.2.3.5.6.9.9l2 1.5c.6.5 1.2 1 1.7 1.7.5.6.7 1.4.7 2.3 0 .7-.2 1.2-.5 1.7s-.8.9-1.4 1.2c-.8.4-1.5.5-2.3.5zM34.4 149.8V138h-2.5v-1.8h7.8v1.8h-2.5v11.8h-2.8zM43.9 149.8v-13.7h3.7c1.1 0 1.9.1 2.7.3.7.2 1.3.6 1.7 1.1.4.5.6 1.2.6 2.2 0 .6-.1 1-.2 1.5-.1.4-.3.8-.6 1.1-.3.3-.7.5-1.1.7l2.2 6.7H50l-1.9-6.3h-1.3v6.3h-2.9zm2.8-7.8h.9c.6 0 1-.1 1.3-.2.3-.1.6-.4.7-.7.1-.3.2-.7.2-1.2 0-.7-.1-1.2-.4-1.5-.3-.3-.8-.5-1.7-.5h-1v4.1zM57.4 149.8v-13.7H64v1.8h-3.7v3.9h2.9v1.7h-2.9v4.5H64v1.7h-6.6zM68.3 149.8v-13.7h6.6v1.8h-3.7v3.9h2.9v1.7h-2.9v4.5h3.7v1.7h-6.6zM80.9 149.8V138h-2.5v-1.8h7.8v1.8h-2.5v11.8h-2.8z"/></g></symbol></svg>