<?xml version="1.0" encoding="utf-8"?>
<!-- Generator: Adobe Illustrator 19.2.1, SVG Export Plug-In . SVG Version: 6.00 Build 0)  -->
<svg version="1.1" id="Layer_1" xmlns="http://www.w3.org/2000/svg" xmlns:xlink="http://www.w3.org/1999/xlink" x="0px" y="0px"
	 width="68px" height="50px" viewBox="0 0 68 50" style="enable-background:new 0 0 68 50;" xml:space="preserve">
<style type="text/css">
	.st0{fill:#C5C5C5;}
	.st1{fill:#B5B5B5;}
</style>
<path class="st0" d="M8.9,32.1L6.1,35l7.8,7.8l13.9-13.9L25,26L13.9,37.1L8.9,32.1z"/>
<path class="st0" d="M21,46c0,0.5-0.5,1-1,1H3c-0.5,0-1-0.5-1-1V29c0-0.5,0.5-1,1-1h16.9l1.6-1.6C21,26.1,20.5,26,20,26H3
	c-1.6,0-3,1.4-3,3v17c0,1.7,1.4,3,3,3h17c1.6,0,3-1.3,3-3v-9.8l-2,2V46z"/>
<path class="st0" d="M20,3c0.5,0,1,0.5,1,1v17c0,0.5-0.5,1-1,1H3c-0.5,0-1-0.5-1-1V4c0-0.5,0.5-1,1-1H20 M20,1H3C1.4,1,0,2.3,0,4v17
	c0,1.6,1.4,3,3,3h17c1.6,0,3-1.4,3-3V4C23,2.3,21.6,1,20,1z"/>
<path class="st1" d="M42.9,32.1L40.1,35l7.8,7.8l13.9-13.9L59,26L47.9,37.1L42.9,32.1z"/>
<path class="st1" d="M55,46c0,0.5-0.5,1-1,1H37c-0.5,0-1-0.5-1-1V29c0-0.5,0.5-1,1-1h16.9l1.6-1.6C55,26.1,54.5,26,54,26H37
	c-1.7,0-3,1.4-3,3v17c0,1.7,1.3,3,3,3h17c1.7,0,3-1.3,3-3v-9.8l-2,2V46z"/>
<path class="st1" d="M54,3c0.5,0,1,0.5,1,1v17c0,0.5-0.5,1-1,1H37c-0.5,0-1-0.5-1-1V4c0-0.5,0.5-1,1-1H54 M54,1H37c-1.7,0-3,1.3-3,3
	v17c0,1.6,1.3,3,3,3h17c1.7,0,3-1.4,3-3V4C57,2.3,55.7,1,54,1z"/>
</svg>
