<?xml version="1.0" encoding="utf-8"?>
<!-- Generator: Adobe Illustrator 19.2.1, SVG Export Plug-In . SVG Version: 6.00 Build 0)  -->
<svg version="1.2" baseProfile="tiny" id="Layer_1" xmlns="http://www.w3.org/2000/svg" xmlns:xlink="http://www.w3.org/1999/xlink"
	 x="0px" y="0px" width="44px" height="65px" viewBox="0 0 44 65" xml:space="preserve">
<g>
	<path fill="#FFFFFF" d="M37.9,30.4v10.9c0,0,0.1,2.7-2.8,2.7C32,44,32,41.3,32,41.3v-6.4c0-0.2-0.3-1.9-2.3-1.9
		C27,33,27,34.9,27,34.9v19.2c0,0,0,1.9-2.5,1.9c-2.5,0-2.5-2-2.5-2V40c0,0,0-2.9-3.8-2.9c-4.1,0-4,3.1-4,3.1v3.7
		c0,0-0.1,2.9-4.7,2.9s-4.6-4.5-4.6-4.5V29.9C3.2,29,0,26.7,0,26.7V56c0,0,3,9,22,9s22-8.7,22-8.7V26.7
		C41.1,29.5,37.9,30.4,37.9,30.4z"/>
	<path fill="#FFFFFF" d="M22,0C1.7,0,0,19.9,0,19.9v3.1C8.4,29.2,22,29,22,29s13.6,0.2,22-6.1v-3.1C44,19.9,42.3,0,22,0z M22,25
		c-11.8,0-14.3-2.4-14.3-2.4c6.3-2.9,14.3-2.8,14.3-2.8s8.1-0.1,14.3,2.8C36.3,22.6,33.8,25,22,25z M22,12.6
		c-9.6,0-17.7,2.9-17.7,2.9C8.9,2.6,22,3.1,22,3.1s13.1-0.4,17.7,12.5C39.7,15.6,31.6,12.6,22,12.6z"/>
</g>
</svg>
