<?xml version="1.0" encoding="utf-8"?>
<!-- Generator: Adobe Illustrator 19.2.1, SVG Export Plug-In . SVG Version: 6.00 Build 0)  -->
<svg version="1.1" id="Layer_1" xmlns="http://www.w3.org/2000/svg" xmlns:xlink="http://www.w3.org/1999/xlink" x="0px" y="0px"
	 width="59px" height="72px" viewBox="0 0 59 72" style="enable-background:new 0 0 59 72;" xml:space="preserve">
<style type="text/css">
	.st0{fill:#FFFFFF;}
</style>
<g>
	<path class="st0" d="M58.3,20.5c-0.6-0.8-1.5-1.2-2.4-1.2H17.3L14.8,12H3.1c-1.7,0-3,1.3-3,3s1.3,3,3,3h7.4L24,58.3h25.2
		c1.7,0,3-1.3,3-3s-1.3-3-3-3H28.3l-1.7-5.1h23.1c1.3,0,2.5-0.9,2.9-2.2l6.3-21.8C59.1,22.3,58.9,21.3,58.3,20.5z M50.6,30.2h-4.8
		v-4.9H52C52,25.4,50.6,30.2,50.6,30.2z M32.9,30.2v-4.9h6.8v4.9L32.9,30.2L32.9,30.2z M39.7,36.2v4.9h-6.8v-4.9H39.7z M26.9,25.4
		v4.9h-6l-1.6-4.9C19.3,25.4,26.9,25.4,26.9,25.4z M22.9,36.2h4v4.9h-2.4L22.9,36.2z M45.7,41.1v-4.9h3.1l-1.4,4.9
		C47.4,41.1,45.7,41.1,45.7,41.1z"/>
	<circle class="st0" cx="27.4" cy="66.1" r="5.8"/>
	<circle class="st0" cx="44.8" cy="66.1" r="5.8"/>
	<path class="st0" d="M29.3,9.7l7.5,5.5c0.9,0.6,2.1,0.5,2.8-0.4c0,0,0,0,0-0.1c0.6-0.9,0.4-2.2-0.5-2.9l-2.4-1.7L46.3,5l4.6,12h4.3
		l-6-15.7c-0.2-0.5-0.6-1-1.2-1.2c-0.5-0.2-1.1-0.2-1.6,0.1L33.1,7.4l-3-2.2c-0.9-0.6-2.1-0.5-2.7,0.4l-8.5,10.8
		c-0.2,0.2-0.3,0.4-0.4,0.6h5.1C23.6,17,29.3,9.7,29.3,9.7z"/>
</g>
</svg>
