<?xml version="1.0" encoding="utf-8"?>
<!-- Generator: Adobe Illustrator 19.2.1, SVG Export Plug-In . SVG Version: 6.00 Build 0)  -->
<svg version="1.1" id="Layer_1" xmlns="http://www.w3.org/2000/svg" xmlns:xlink="http://www.w3.org/1999/xlink" x="0px" y="0px"
	 width="75px" height="61px" viewBox="0 0 75 61" style="enable-background:new 0 0 75 61;" xml:space="preserve">
<style type="text/css">
	.st0{fill:#FFFFFF;}
</style>
<g>
	<path class="st0" d="M5,58.9c0,0,0,2.1,1.9,2.1h27c0,0,2-0.2,2-2V47.9H5V58.9z M73.9,8H60.4c-0.6-2.3-2.1-3.9-3.8-3.9h-7.5v12.8
		h7.5c1.7,0,3.1-1.6,3.8-3.9h13.5c0.6,0,1-1.1,1-2.5S74.4,8,73.9,8z M2.1,0C0.2,0,0,2,0,2v15.8c0,2.9,2.9,3,2.9,3h9
		c1.9,0,1.6,1.3,1.6,1.3s-2.5,13-2.7,15.2C10.5,39.6,8.9,41,8.9,41s-2.1,1.2-3,1.7S5,44.9,5,44.9h30.9v-0.7c0-1.5-6.5-3.1-9.1-3.4
		c-2.6-0.3-2.1-2-2.1-2l1.1-7.8h3l1.1-7.9h-3l0.3-2.7l8.6-0.1c5.8-0.6,10-4.1,10-4.1v-12C41.3,0.8,34,0,34,0H2.1z M36,4.9L36,4.9
		c0,0.6-0.5,1-1,1H5C4.5,6,4,5.5,4,5v0c0-0.6,0.4-1,1-1h30C35.5,3.9,36,4.4,36,4.9z"/>
</g>
</svg>
