<?xml version="1.0" encoding="utf-8"?>
<!-- Generator: Adobe Illustrator 19.2.1, SVG Export Plug-In . SVG Version: 6.00 Build 0)  -->
<svg version="1.1" id="Layer_1" xmlns="http://www.w3.org/2000/svg" xmlns:xlink="http://www.w3.org/1999/xlink" x="0px" y="0px"
	 width="40px" height="17px" viewBox="0 0 40 17" style="enable-background:new 0 0 40 17;" xml:space="preserve">
<style type="text/css">
	.st0{fill:#C5C5C5;}
	.st1{fill:#32425C;}
</style>
<g>
	<polygon class="st0" points="20,8.5 11.1,0 11.1,6 5.1,6 5.1,11 11.1,11 11.1,17 	"/>
	<path class="st0" d="M2,14V3C2,2.7,2.2,2,3,2h5V0H3C0.9,0,0,1.8,0,3V14c0,1.2,0.9,3,3,3h5v-2H3C2.2,15,2,14.3,2,14z"/>
</g>
<g>
	<polygon class="st1" points="40,8.5 31.1,0 31.1,6 25.1,6 25.1,11 31.1,11 31.1,17 	"/>
	<path class="st1" d="M22,14V3C22,2.7,22.2,2,23,2h5V0h-5c-2.2,0-3,1.8-3,3V14c0,1.2,0.9,3,3,3h5v-2h-5C22.2,15,22,14.3,22,14z"/>
</g>
</svg>
