<?xml version="1.0" encoding="utf-8"?>
<!-- Generator: Adobe Illustrator 19.2.1, SVG Export Plug-In . SVG Version: 6.00 Build 0)  -->
<svg version="1.1" id="Layer_1" xmlns="http://www.w3.org/2000/svg" xmlns:xlink="http://www.w3.org/1999/xlink" x="0px" y="0px"
	 width="34px" height="17px" viewBox="0 0 34 17" style="enable-background:new 0 0 34 17;" xml:space="preserve">
<style type="text/css">
	.st0{fill:#FFFFFF;}
	.st1{fill:#EE3643;}
</style>
<g id="Layer_1_1_">
</g>
<g id="Layer_2">
	<path class="st0" d="M17,15.6L13.5,12c1-1.3,1.5-2.8,1.5-4.5C15,3.4,11.6,0,7.5,0S0,3.4,0,7.5S3.4,15,7.5,15c1.7,0,3.3-0.6,4.5-1.5
		l3.5,3.5L17,15.6z M2,7.5C2,4.5,4.5,2,7.5,2S13,4.5,13,7.5S10.5,13,7.5,13S2,10.5,2,7.5z"/>
</g>
<g id="Layer_2_1_">
	<path class="st1" d="M34,15.6L30.5,12c1-1.3,1.5-2.8,1.5-4.5C32,3.4,28.6,0,24.5,0S17,3.4,17,7.5s3.4,7.5,7.5,7.5
		c1.7,0,3.3-0.6,4.5-1.5l3.5,3.5L34,15.6z M19,7.5c0-3,2.5-5.5,5.5-5.5S30,4.5,30,7.5S27.5,13,24.5,13S19,10.5,19,7.5z"/>
</g>
</svg>
