<?xml version="1.0" encoding="utf-8"?>
<!-- Generator: Adobe Illustrator 19.2.1, SVG Export Plug-In . SVG Version: 6.00 Build 0)  -->
<svg version="1.1" id="Layer_1" xmlns="http://www.w3.org/2000/svg" xmlns:xlink="http://www.w3.org/1999/xlink" x="0px" y="0px"
	 width="28px" height="12px" viewBox="0 0 28 12" style="enable-background:new 0 0 28 12;" xml:space="preserve">
<style type="text/css">
	.st0{fill:#C1C6CE;}
</style>
<g>
	<path class="st0" d="M2,8v4h4V8h2v4h4V8L7,3.5L2,8z"/>
	<path class="st0" d="M13.9,6.4L12,4.8V0h-2v3L7.3,0.6c0,0,0,0-0.1,0c0,0-0.1,0-0.1,0c0,0-0.1,0-0.1,0c0,0-0.1,0-0.1,0
		c0,0-0.1,0-0.1,0c0,0-0.1,0-0.1,0c0,0-0.1,0-0.1,0c0,0,0,0-0.1,0L0.2,6.4C0,6.5-0.1,6.9,0.1,7.1c0.1,0.1,0.2,0.2,0.4,0.2
		c0.1,0,0.2,0,0.3-0.1L7,1.7l6.2,5.4c0.2,0.2,0.5,0.1,0.7-0.1C14.1,6.8,14,6.5,13.9,6.4z"/>
</g>
<g>
	<path d="M16,8v4h4V8h2v4h4V8l-5-4.5L16,8z"/>
	<path d="M27.9,6.4L26,4.8V0h-2v3l-2.7-2.4c0,0,0,0-0.1,0c0,0-0.1,0-0.1,0c0,0-0.1,0-0.1,0c0,0-0.1,0-0.1,0c0,0-0.1,0-0.1,0
		c0,0-0.1,0-0.1,0c0,0-0.1,0-0.1,0c0,0,0,0-0.1,0l-6.5,5.7c-0.2,0.2-0.2,0.5,0,0.7c0.1,0.1,0.2,0.2,0.4,0.2c0.1,0,0.2,0,0.3-0.1
		L21,1.7l6.2,5.4c0.2,0.2,0.5,0.1,0.7-0.1C28.1,6.8,28,6.5,27.9,6.4z"/>
</g>
</svg>
