<?xml version="1.0" encoding="utf-8"?>
<!-- Generator: Adobe Illustrator 19.2.1, SVG Export Plug-In . SVG Version: 6.00 Build 0)  -->
<svg version="1.1" id="Layer_1" xmlns="http://www.w3.org/2000/svg" xmlns:xlink="http://www.w3.org/1999/xlink" x="0px" y="0px"
	 width="68px" height="50px" viewBox="0 0 68 50" style="enable-background:new 0 0 68 50;" xml:space="preserve">
<style type="text/css">
	.st0{fill:#C5C5C5;}
	.st1{fill:#B5B5B5;}
</style>
<path class="st0" d="M12.5,29c4.7,0,8.5,3.8,8.5,8.5S17.2,46,12.5,46S4,42.2,4,37.5S7.8,29,12.5,29 M12.5,25C5.6,25,0,30.6,0,37.5
	S5.6,50,12.5,50S25,44.4,25,37.5S19.4,25,12.5,25z"/>
<circle class="st0" cx="12.5" cy="37.5" r="4.5"/>
<path class="st0" d="M12.5,4c4.7,0,8.5,3.8,8.5,8.5S17.2,21,12.5,21S4,17.2,4,12.5S7.8,4,12.5,4 M12.5,0C5.6,0,0,5.6,0,12.5
	S5.6,25,12.5,25S25,19.4,25,12.5S19.4,0,12.5,0z"/>
<path class="st1" d="M46.5,29c4.7,0,8.5,3.8,8.5,8.5S51.2,46,46.5,46S38,42.2,38,37.5S41.8,29,46.5,29 M46.5,25
	C39.6,25,34,30.6,34,37.5S39.6,50,46.5,50S59,44.4,59,37.5S53.4,25,46.5,25z"/>
<circle class="st1" cx="46.5" cy="37.5" r="4.5"/>
<path class="st1" d="M46.5,4c4.7,0,8.5,3.8,8.5,8.5S51.2,21,46.5,21S38,17.2,38,12.5S41.8,4,46.5,4 M46.5,0C39.6,0,34,5.6,34,12.5
	S39.6,25,46.5,25S59,19.4,59,12.5S53.4,0,46.5,0z"/>
</svg>
