<svg class="nav__icon" xmlns="http://www.w3.org/2000/svg" width="28" height="23" aria-hidden="true"><path class="nav__icon-bottom" fill="url(#bottom0)" opacity=".6" d="M0 7.052a1 1 0 011-1h14a1 1 0 011 1v14a1 1 0 01-1 1H1a1 1 0 01-1-1v-14z"/><path class="nav__icon-top" fill="url(#top0)" fill-rule="evenodd" d="M21.523 8.679c0 3.083-2.563 5.679-5.845 5.679-3.281 0-5.844-2.596-5.844-5.679S12.397 3 15.679 3c3.281 0 5.844 2.596 5.844 5.679zm-.58 7.962c-.324-.355-.853-.423-1.283-.21a8.944 8.944 0 01-3.982.927c-4.884 0-8.844-3.886-8.844-8.679S10.794 0 15.679 0c4.884 0 8.844 3.886 8.844 8.679 0 1.72-.51 3.322-1.388 4.67-.27.413-.257.962.075 1.326l4.397 4.813a1.5 1.5 0 11-2.215 2.024l-4.45-4.871z" clip-rule="evenodd"/></svg>