<svg class="nav__icon" xmlns="http://www.w3.org/2000/svg" width="27" height="26" aria-hidden="true"><path class="nav__icon-bottom" fill="url(#bottom0)" opacity=".6" d="M11 5.554a1 1 0 01.47-.848l7-4.375a1 1 0 011.06 0l7 4.375a1 1 0 01.47.848V16a1 1 0 01-1 1H12a1 1 0 01-1-1V5.554z"/><path class="nav__icon-top" fill="url(#top0)" d="M0 25.21c0-4.078 4.981-5.74 7.199-6.262.047-.01.116-.015.116-.064v-.503c0-.215-.07-.455-.188-.647a6.319 6.319 0 01-.844-1.749 1.005 1.005 0 00-.21-.383c-.493-.575-.704-1.366-.845-1.845-.233-.787-.443-1.954.156-2.768a.147.147 0 00.014-.023.126.126 0 00.014-.073C5.332 10.26 4.362 3 11.184 3c7.401 0 6.464 7.14 6.38 7.87a.124.124 0 00.015.073.151.151 0 00.012.021c.601.838.39 1.982.157 2.77-.117.454-.352 1.27-.844 1.844a.926.926 0 00-.169.303c-.016.053-.027.107-.045.159a8.003 8.003 0 01-.817 1.67 1.224 1.224 0 00-.188.647v.503c0 .05.069.054.116.065 2.217.545 7.199 2.183 7.199 6.26a.8.8 0 01-.797.815H.773A.79.79 0 010 25.21z"/></svg>