<svg xmlns="http://www.w3.org/2000/svg" xmlns:xlink="http://www.w3.org/1999/xlink"><defs><linearGradient id="bottom0" x1="3.158" x2="1.198" y1="23.434" y2="15.91" gradientUnits="userSpaceOnUse"><stop offset="0" stop-color="#505050"/><stop offset="1" stop-color="#333"/></linearGradient><linearGradient id="top0" x1="0" x2="-4.724" y1="13.2" y2="-.053" gradientUnits="userSpaceOnUse"><stop offset="0" stop-color="#505050"/><stop offset="1" stop-color="#333"/></linearGradient><linearGradient id="bottom1" x1="10" x2="10" y1="15.4" y2="22" gradientUnits="userSpaceOnUse"><stop offset="0" stop-color="#F66200"/><stop offset="1" stop-color="#FF971C"/></linearGradient><linearGradient id="top1" x1="10" x2="10" y1="0" y2="13.2" gradientUnits="userSpaceOnUse"><stop offset="0" stop-color="#F66200"/><stop offset="1" stop-color="#FF971C"/></linearGradient></defs><symbol id="defs"/><symbol id="icon-bookmark" viewBox="0 0 9 10"><path d="M0 .625C0 .25.257 0 .643 0h7.714C8.743 0 9 .25 9 .625V9.62c0 .375-.257.437-.514.25L5.014 7.246c-.257-.187-.707-.187-1.028 0L.514 9.87C.257 10.12 0 9.995 0 9.62V.625z"/></symbol><symbol id="icon-feed-list" viewBox="0 0 16 15"><rect width="16" height="4" y="8" opacity=".5" rx="1"/><rect width="16" height="2" y="13" opacity=".3" rx="1"/><rect width="16" height="7" rx="1"/></symbol><symbol id="icon-map-mark" viewBox="0 0 11 15"><path fill-rule="evenodd" d="M0 5.299C0 2.374 2.464 0 5.5 0S11 2.374 11 5.299C11 9.199 5.5 15 5.5 15S0 9.198 0 5.299zM5.5 8a2.5 2.5 0 100-5 2.5 2.5 0 000 5z" clip-rule="evenodd"/></symbol><symbol id="icon-slider-type-hottest" viewBox="0 0 13 15"><path d="M11.727 5.834a.423.423 0 00-.309.383c-.065 1.048-.586 1.996-1.417 2.562.7-3.627-1.125-7.27-4.53-8.75a.46.46 0 00-.39.033.414.414 0 00-.18.35c0 1.613-1.14 2.977-2.33 4.391C1.367 6.233.129 7.697.015 9.527A5.935 5.935 0 002.669 14.9c.147.1.326.083.473-.016.13-.1.195-.283.13-.45a4.483 4.483 0 01.163-3.193 4.23 4.23 0 00.782 2.129A3.977 3.977 0 007.427 15c.114 0 .244 0 .358-.017 1.988-.232 3.698-1.447 4.594-3.277a6.02 6.02 0 00-.195-5.689c-.098-.15-.294-.232-.457-.183z"/></symbol><symbol id="icon-slider-type-tour" viewBox="0 0 17 16"><path d="M11 11.5c0-1.4 1.1-2.5 2.5-2.5s2.5 1.1 2.5 2.5c0 1.8-2.5 4.5-2.5 4.5S11 13.3 11 11.5z"/><path d="M8.5 16H5c-2.8 0-5-2.2-5-5s2.2-5 5-5h8.5c.4 0 .8-.2 1.1-.4.2-.3.4-.7.4-1.1 0-.8-.7-1.5-1.5-1.5H7c-.5 0-1-.4-1-1s.4-1 1-1h6.5C15.4 1 17 2.6 17 4.5c0 .9-.4 1.8-1 2.5-.7.7-1.5 1-2.5 1H5c-1.7 0-3 1.3-3 3s1.3 3 3 3h3.5c.6 0 1 .4 1 1s-.4 1-1 1z"/><circle cx="2" cy="2" r="2"/></symbol></svg>