<svg xmlns="http://www.w3.org/2000/svg" width="75" height="73" viewBox="0 0 74.7 72.3" fill="#81b3d2"><path d="M29.5 65.3h16V41.4h-16v23.9zm13.1-2.9H32.4V44.3h10.1v18.1zm30-23l2.1-2.1-9.9-9.9V.4H51v13.2L37.3 0 0 37.4l2.1 2.1 7.8-7.8v37.8H6v2.9h63.9v-2.9h-5.1V31.6l7.8 7.8zm-18.7-36h7.9v21.1l-7.9-7.9V3.4zm7.9 66h-49V28.7L37.3 4.2l24.5 24.5v40.7zm-32-42.2c0 4.3 3.5 7.8 7.7 7.8s7.8-3.5 7.8-7.8-3.5-7.8-7.8-7.8-7.7 3.5-7.7 7.8zm7.7-5c2.7 0 5 2.2 5 5a4.95 4.95 0 0 1-5 5 4.95 4.95 0 0 1-5-5c0-2.8 2.3-5 5-5zM16.9 41.4h3v3.9h-3zm5.9 0h3v3.9h-3zm-5.9 6h3v3.9h-3zm5.9 0h3v3.9h-3zm26-6h3v3.9h-3zm6 0h3v3.9h-3zm-6 6h3v3.9h-3zm6 0h3v3.9h-3z"/></svg>