<svg xmlns="http://www.w3.org/2000/svg" width="102" height="84" viewBox="42.185 0 101.668 83.984"><path fill="#23a9e1" d="M42.185 0l50.58 59.054L143.853 0z"/><g fill="#491213"><path d="M93.104 0h-50.92v22.463l50.582 61.52.338-.424 50.748-60.394V0h-50.75zm0 57.05l-.338.4L45.893 1.776h94.418L93.104 57.05z"/><path d="M92.766 57.46l.338-.4 27.576-32.287c-6.912.95-11.863 6.076-18.604 4.955-3.396-.563-3.498-2.514-4.47-4.455-.746-1.493-1.938-1.303-3.486-1.9-1.443-.564-2.277-1.738-5.162-1.06-2.528.592-2.81 4.518-5.953 4.293-1.688-.12-1.81-2.498-4.244-5.54-6.3-7.57-12.157-6.523-16.245.475l30.25 35.94z"/></g><g fill="#fff"><path d="M65.464 32.248c.513.618.892 1.284.806 2.116-.06.58-.937 1.55-.27 1.847l2.242-2.834c-.602-.15-5.365-5.85-5.44-6.473l-3.16 1.734c.164.66 1.295.005 1.854.046.828.06 1.424.56 1.953 1.15l-6.375 5.1c-.227.037-1.1-.6-1.102-.055-.007.262.853 1.014 1.015 1.2l2.23 2.652c.62-.28-.108-.73.205-1.242.235-.374 4.904-4.265 6.044-5.24zm-5.272-6.978c.442-.095.623.434.957-.056l-2.447-2.918c-.372-.44-.84-.916-.707.02.1.63-6.113 5.664-6.493 5.82-.48.197-.758-.416-1.108.098l2.192 2.607.747.883c.34.34.208-.672.225-.586-.092-.512.526-.947.854-1.228l5.78-4.638zm-8.772-.918c-1.768.523-3.65-.164-4.207-2.042-.543-1.835.614-3.757 2.07-4.802 1.438-1.03 3.6-.97 4.373.838.346.8.157 1.707-.095 2.503-.16.506-.598 1 .057 1.288l2.58-3.285c-1.056-.633-1.52-1.684-2.3-2.596-.882-1.07-2.063-2.078-3.48-2.283-2.87-.406-5.574 2.556-5.795 5.244-.137 1.457.374 2.85 1.246 4.002.75.994 1.867 1.623 2.436 2.754.262.095 2.704-1.033 3.285-1.256-.052-.1-.1-.275-.17-.365-.76.225 0 0 0 0zm39.3 36.408c-1.15-.768-4.025-4.7-4.574-5.34l-.328-.393c-.012-.016-.283.225-.246.2-.174.146.135.574-.053.865-.793 1.238-5.76 4.98-6.017 5.162-.555.385-1.164-.158-1.487.314l3.02 3.582c.48.078.146-.814.2-1 .123-.37 2.633-2.445 3.55-3.2.336-.28.688.426.888.723.327.484.475 1 .3 1.568-.117.37-.717.92-.25 1.174l2.612-3.05c.253-.293-.565-.037-.47-.086-.37.2-.72.234-1.063-.03-.097-.068-1.088-1.082-1-1.166.432-.36.96-.963 1.518-1.1.863-.213 1.582 1.516 1.7 2.13.12.578.104 1.186-.075 1.75-.123.387-.486.697.018.93l2.133-2.92a.666.666 0 0 1-.405-.092c-.128-.084.14.07 0 0zm-10.224-4.132c2.205-1.855 2.482-5.053.77-7.338-1.867-2.5-5.37-3.097-7.806-1.052-2.203 1.853-2.487 5.046-.758 7.324 2 2.62 5.2 2.918 7.793 1.066 1.157-.974-.1.07 0 0zm-.465-4.752c-.646 1.5-2.2 3.062-3.732 3.666-1.817.715-3.1-.826-2.358-2.553.65-1.516 2.203-3.057 3.735-3.666 1.852-.733 3.066.846 2.355 2.553-.38.9.07-.17 0 0zm-5.98-9.856c.476.062.927.55 1.27.043l-2.228-2.638c-.596.27.048.55-.194.972s-2.56.78-3.176.9c.225-.644.896-2.615 1.157-2.835.543-.444.884.433 1.283-.14L69.42 35.06c-.3-.366-.56-1.028-.98-.68.04-.03.006 1.473-.088 1.73-.086.235-.937 3.64-1.927 4.472-.493.414-2.237 1.934-2.702 2.096-.54.188-.824-.598-1.22-.037l2.5 2.957c.125.148.603.863.768.893.52.096.06-.893.113-1.086.15-.43 2.5-2.72 3.496-2.857 1.462-.208 3.2-.706 4.682-.527.34.042-.35-.043 0 0zM111.4 52.45c.2.648.3 1.332.215 2-.107.873-.98 2.924-2.174 2.34-1.168-.574-2.193-1.73-3.188-2.553.803-.936 1.508-1.748 2.854-1.295.37.123.688-.035.3-.262-.404-.234-3.113-1.965-3.26-1.8-.27.3.527.867.222 1.473-.23.447-.6.834-.933 1.22-.72-.607-1.924-1.252-1.057-2.256.54-.66 1.25-1.172 2.098-1.342.564-.113 1.84.4 2.007-.225l-3.26-1.564c.177.798-3.35 4.523-4.13 5.462-.112.14-.658.6-.664.8-.01.428.62.096.656.084.486-.182 6.816 5.107 6.973 5.47.1.28-.22.574-.028.73-.01-.01.23.217.254.186.4-.47 4.52-5.977 5.373-6.217l-2.367-3.652c-.6.258-.02.95.1 1.4zm-6.16 6.702c-2.076-1.34-5.597 1.28-6.125 1.53-1.04.5-1.8-.543-1.25-1.502.47-.83 1.393-1.234 2.3-1.3.275-.018 1.35.197 1.46.025.13-.203.228-.223.04-.348l-2.565-1.73c-.177 1.057-1.386 1.73-2.076 2.44-.822.855-1.52 1.932-1.52 3.156 0 1.135.68 2.143 1.677 2.66 1.137.592 2.317.117 3.323-.5.627-.393 1.254-.857 1.924-1.172.996-.467 2.306-.062 1.953 1.27-.28 1.074-1.352 2.062-2.403 2.34-.617.164-1.27.1-1.873-.1-.433-.14-.992-.734-1.23-.1l3.48 2.537c.104-.76.522-1.1 1.086-1.562.735-.646 1.438-1.318 1.994-2.13 1.158-1.693 1.538-4.062-.206-5.513z"/><path d="M105.23 59.152c.926.598-.6-.494 0 0zm36.69-39.522c-.73.73-8.42-2.342-8.98-2.765-.3-.116-.3-1.32-.705-.833l-2.47 2.977c-.26.313-.537.457-.04.72.838-.42 5.418 7.346 5.008 8.46-.726.376-6.914-5.058-7.08-5.415-.053-.146.272-1.02-.2-.945-.23.036-.744.896-.9 1.072l-.9 1.072c.332.484.516-.02.96.042.383.077 1.844 1.33 2.24 1.663l-2.935.113c-.903.112-.422-.662-1.016-.93l-3.602 4.37c-.054.065-.047.032.05.112.33.272.104.168.567.006.507-.178 6.56 4.93 6.775 5.2.377.45-.154.976.412 1.22l1.797-2.184c.092-.1.14-.1.02-.197-.43-.354-.478.2-1.002.153-.533-.1-4.396-3.368-5.896-4.6l8.197-.304c.3-.01 1.14.896 1.067 1.216-.08.38-.463.56.056.795l1.455-1.734.23-.282a.64.64 0 0 0 .2-.265l.168-.2c.426-.485 1.8-2.006 1.635-2.15-.46-.4-.684.466-1.297-.054-.348-.25-1.223-1.788-1.442-2.162-.265-.45.606-.897.963-1.12.776-.48 3.248-1.183 3.48.35.04.258-.27.55-.084.703.045.037.205.242.27.163l3.3-3.97c-.094-.082-.204-.223-.322-.268zm-7.373 2.155c.077-.05.153-.097 0 0l-.084.054c.015-.008.047-.03.082-.05-.346.22-.668.473-.96.76l-1.563-2.692 3.524 1.48a3.61 3.61 0 0 0-1 .448zm-9.747 11.21c-2.375-1.98-5.63-1.404-7.586.83-1.9 2.312-1.7 5.664.605 7.615 2.34 1.926 5.67 1.438 7.572-.847 1.9-2.302 1.77-5.667-.6-7.6zm-.28 6.613l-.025.025c-1.23 1.293-3.356.098-4.506-.73s-3.1-2.568-1.855-4.104c1.058-1.287 3.125-.23 4.2.48 1.2.804 3.412 2.597 2.275 4.216.073-.1.127-.144-.08.112z"/><path d="M124.8 32.996c1.173.96-.252-.212 0 0zm-.308 6.64l.025-.026.08-.1-.105.136zm-6.284 2.483a2.45 2.45 0 0 0-.062-.057c-2.836-2.127-6.193-1.504-8.402 1.156l-2.96 3.566c.352.512.764-.117 1.273.176.436.25 6.243 5.1 6.338 5.365.164.46-.254.55.145.875.172.145 4.537-5.244 4.937-6.2.688-1.753.138-3.677-1.268-4.892zm-1.317 6.754c-.24.297-.043.055-.664.65-.308.293-6.438-4.675-6.2-4.943.834-.918 2.566-1.557 3.576-1.3 2.188.56 5.212 3.262 3.28 5.592z"/></g><path fill="#491213" d="M92.765 57.477l.34-.41L120.68 24.78c-6.913.95-11.864 6.077-18.604 4.956-3.396-.564-3.498-2.514-4.47-4.456-.746-1.493-1.937-1.303-3.486-1.9-1.442-.565-2.277-1.738-5.162-1.06-2.528.593-2.808 4.518-5.952 4.293-1.69-.12-1.812-2.497-4.244-5.54-6.302-7.57-12.158-6.523-16.247.475l30.25 35.94z"/><path fill="#23a9e1" d="M88.745 70.916l4.02-6.5 4.004 6.5-4.004 6.514z"/><path d="M65.464 32.265c.513.618.9 1.284.806 2.116-.06.58-.936 1.55-.27 1.846l2.242-2.834c-.603-.15-5.365-5.848-5.442-6.472l-3.16 1.734c.164.66 1.294.005 1.854.046.828.06 1.425.56 1.953 1.152l-6.374 5.1c-.227.036-1.1-.6-1.102-.056-.006.262.853 1.014 1.015 1.2l2.23 2.653c.62-.282-.1-.732.205-1.243.233-.374 4.902-4.267 6.043-5.242zm-5.274-6.98c.443-.095.624.434.958-.056L58.7 22.312c-.37-.442-.84-.916-.706.018.1.63-6.113 5.664-6.493 5.82-.48.197-.758-.417-1.1.097l2.193 2.608.747.882c.34.34.208-.672.224-.585-.1-.513.527-.948.855-1.228l5.78-4.64zm-8.77-.917c-1.768.523-3.65-.164-4.207-2.042-.543-1.835.614-3.757 2.07-4.8 1.438-1.032 3.6-.97 4.373.838.346.8.157 1.706-.095 2.502-.16.506-.597 1 .057 1.3l2.58-3.286c-1.056-.633-1.52-1.683-2.3-2.595-.882-1.07-2.063-2.08-3.48-2.284-2.87-.406-5.574 2.556-5.795 5.245-.137 1.457.374 2.848 1.246 4 .75.994 1.867 1.623 2.435 2.754.262.095 2.705-1.033 3.286-1.255-.052-.1-.1-.275-.17-.366-.76.226 0 0 0 0zm39.3 36.41c-1.15-.768-4.025-4.7-4.573-5.34l-.33-.392c-.01-.015-.283.225-.246.2-.173.146.135.573-.052.864-.793 1.24-5.758 4.982-6.016 5.163-.556.384-1.164-.16-1.5.315l3.02 3.582c.48.078.147-.814.2-1 .123-.37 2.633-2.445 3.55-3.2.336-.28.688.426.888.723.327.484.475 1 .298 1.568-.116.37-.717.92-.25 1.174l2.613-3.05c.252-.293-.566-.037-.47-.087-.37.2-.72.235-1.063-.028-.096-.07-1.1-1.082-1-1.166.432-.36.96-.963 1.518-1.1.862-.213 1.582 1.516 1.7 2.13a3.45 3.45 0 0 1-.076 1.75c-.124.387-.487.696.018.93l2.132-2.92a.687.687 0 0 1-.403-.094c-.127-.085.14.07 0 0zm-10.224-4.13c2.205-1.855 2.48-5.053.77-7.34-1.867-2.5-5.37-3.096-7.804-1.052-2.204 1.854-2.5 5.047-.758 7.325 2 2.62 5.2 2.918 7.793 1.066 1.156-.975-.1.07 0 0zm-.465-4.753c-.647 1.5-2.2 3.063-3.732 3.667-1.818.715-3.1-.827-2.36-2.553.65-1.516 2.203-3.057 3.737-3.666 1.852-.735 3.066.846 2.355 2.552-.38.9.07-.17 0 0zm-5.98-9.856c.475.06.926.55 1.27.042l-2.228-2.637c-.595.27.047.55-.194.97-.244.427-2.56.78-3.176.9.224-.644.896-2.615 1.157-2.835.544-.445.883.432 1.283-.14l-2.743-3.253c-.3-.366-.56-1.028-.98-.68.038-.03.006 1.472-.1 1.733-.086.236-.936 3.638-1.926 4.47-.493.414-2.237 1.934-2.702 2.097-.54.2-.825-.598-1.22-.038l2.5 2.957c.125.148.602.863.767.893.52.094.06-.893.113-1.086.15-.43 2.5-2.72 3.497-2.86 1.46-.205 3.2-.702 4.68-.524.34.042-.352-.043 0 0z" fill="#fff"/><path d="M67.792 22.874c-4.043-.167-2.352-3.954.395-4.808 2.6-.813 8.1 1.717 9.843 3.398-2.782.855-6.386.732-9.446.874-.227-3.12-.96-2.032-.792.536zm1.015 4.85c-2.04-1.58-1.396-5.266 1.763-4.146 4.005 2.084-.856 3.24-1.763 4.146 0 0 .042-.042 0 0zm8.488 7.7c-8.62-.07-2.792-13.322.14-12.52 3.373 1.073 2.995 12.622-.14 12.52zm6.105-4.33c-.84 2.5-2.36 2.968-2.2-.07.193-3.503 2.48-2.662 4.93-4.004 2.04-1.12 3.14-5.214 6.64-2.765 1.562 1.093 3.353.18 3.852 1.833-.025-.084-4.545 10.308-2.03 10.308-4.96 0-2.772-5.922-.874-9.9-1.847.885-4.842 6.688-2.382 7.643-1.28 1.686-5.194 3.945-7.234 2.298-1.554-1.25-.694-3.325-.7-5.344zm4.105 9.603c-3.5 1.046-8.122-1.207-2.5-2.34 3.483-.704 7.187.778 2.5 2.34.14-.042-.128.043 0 0zm4.37-.14c-.736-1.658.562-3.635 2.68-2.2 1.847 1.252-.85 3.106-2.68 2.2zm-2.945 4.668c-2.4-.747-10.537-.56-5.218-2.764 1.64-.68 10.154.098 5.218 2.764zm3.214-.354c-.007-.96-.512-2.68 1.354-1.946 2.235.88-1.354 2.65-1.354 1.946 0 0 0-.17 0 0zm7.22 3.668c-1.437-1.227-2.9-1.295-4.23 0-1.795-3.293-8.318-2.2-11.366-2.65 1.638 4.03 14.864 4.78 15.595 2.65zm-1.903 2.424c-3.15-.146-6.67-.563-9.646.084 1.86.466 6.396 1.795 2.172 2.918 1.516 2.168 3.974 2.03 5.584.127-.654-.322-1-.72-1.552-1.057 1.672-.303 3.234-1.267 3.442-2.072zm3.596-3.877c-5.288-3.112-3.95-5.427.354-7.586 2.254-1.13 7.323-5.208 9.446-3.85l-9.8 11.436z" fill="#dc6243"/><path fill="#f49774" d="M97.29 39.81c-4.48-4.6 6.688-4.178 8.486-5.796 1.312.437 10.77-8.283 13.07-7.74-1.655 1.94-5.22 8.136-7.774 8.136-1.965 0-3.95-.292-5.473 1.107-2.223 2.048-5.907 3.1-8.3 4.294z"/><path fill="#f4b1a4" d="M98.758 34.183c-2.453 1.32-4.772-3.907-.537-3.398 2.813.338 5.662-.237 8.348.226-1.927 2.29-4.706 3.553-7.81 3.172z"/><g fill="#fff"><path d="M111.4 52.466c.2.648.3 1.332.215 2-.106.873-.98 2.925-2.173 2.34-1.17-.573-2.194-1.728-3.188-2.552.802-.936 1.507-1.75 2.854-1.295.37.123.688-.036.3-.262-.404-.234-3.113-1.965-3.26-1.8-.27.3.528.867.22 1.473-.23.447-.6.834-.932 1.22-.72-.607-1.923-1.253-1.057-2.256.542-.66 1.25-1.172 2.098-1.342.565-.114 1.84.4 2.006-.225l-3.258-1.565c.177.8-3.35 4.525-4.13 5.463-.113.138-.658.6-.664.798-.01.43.622.097.657.084.485-.18 6.815 5.108 6.973 5.47.1.28-.22.574-.03.73-.01-.01.23.217.253.185.392-.468 4.522-5.976 5.374-6.217l-2.368-3.65c-.6.258-.02.95.1 1.4zm-6.17 6.704c-2.077-1.34-5.596 1.28-6.125 1.53-1.04.5-1.8-.543-1.25-1.502.47-.83 1.394-1.234 2.3-1.3.276-.018 1.35.197 1.46.025.13-.202.228-.22.042-.346L99.1 55.854c-.176 1.056-1.385 1.728-2.076 2.44-.822.854-1.52 1.93-1.52 3.156 0 1.135.68 2.143 1.677 2.66 1.136.592 2.317.116 3.324-.5.627-.392 1.254-.856 1.924-1.17.996-.467 2.304-.062 1.953 1.27-.282 1.073-1.352 2.062-2.405 2.34-.616.164-1.27.1-1.872-.1-.432-.142-.993-.734-1.23-.1l3.48 2.537c.104-.76.522-1.1 1.086-1.563.735-.646 1.438-1.32 1.994-2.13 1.158-1.692 1.537-4.06-.206-5.513zm0 0c.925.598-.59-.494 0 0zm36.69-39.525c-.73.73-8.42-2.34-8.982-2.764-.3-.116-.3-1.32-.705-.833l-2.472 2.976c-.26.314-.537.458-.038.72.837-.42 5.417 7.346 5.008 8.46-.725.376-6.915-5.057-7.08-5.415-.052-.146.273-1.02-.2-.945-.23.036-.743.896-.9 1.072l-.9 1.072c.332.485.517-.02.96.042.383.077 1.844 1.33 2.24 1.664l-2.934.113c-.903.112-.422-.663-1.015-.93l-3.603 4.37c-.054.065-.047.032.05.112.33.273.104.168.568.006.506-.177 6.56 4.93 6.776 5.2.377.45-.154.975.4 1.22l1.798-2.184c.1-.1.14-.1.02-.198-.427-.353-.476.212-1.002.154-.533-.1-4.395-3.37-5.895-4.6l8.198-.304c.3-.01 1.14.896 1.068 1.216-.08.378-.463.558.054.794l1.456-1.734.228-.282a.74.74 0 0 0 .21-.265l.168-.2c.425-.485 1.8-2.006 1.635-2.15-.46-.4-.685.466-1.298-.054-.348-.25-1.223-1.788-1.443-2.162-.264-.45.608-.897.964-1.12.776-.482 3.247-1.183 3.482.348.04.258-.27.55-.084.704.044.037.204.242.27.163l3.3-3.97c-.098-.082-.207-.224-.324-.27zm-7.374 2.156c.077-.05.153-.098 0 0l-.084.054.082-.052a5.72 5.72 0 0 0-.958.761l-1.564-2.693 3.524 1.48a3.72 3.72 0 0 0-1 .45zm-9.746 11.21c-2.375-1.98-5.63-1.404-7.586.832-1.903 2.312-1.712 5.663.604 7.615 2.34 1.926 5.67 1.438 7.572-.846 1.9-2.303 1.77-5.668-.6-7.6zm-.28 6.614l-.025.027c-1.232 1.292-3.358.096-4.506-.73s-3.1-2.57-1.855-4.104c1.056-1.287 3.124-.23 4.2.482 1.2.803 3.4 2.596 2.275 4.216.074-.1.126-.148-.08.1z"/><path d="M124.8 33.012c1.17.96-.253-.2 0 0zm-.308 6.64l.025-.027.08-.1-.105.137zm-6.282 2.483c.1.094.272.224-.063-.057-2.835-2.127-6.193-1.504-8.4 1.157l-2.96 3.567c.35.512.763-.118 1.272.176.437.25 6.244 5.1 6.34 5.366.164.458-.255.548.145.875.172.143 4.536-5.245 4.935-6.2.7-1.755.14-3.678-1.266-4.893zM116.9 48.9c-.24.296-.044.054-.665.65-.306.293-6.438-4.675-6.2-4.944.835-.918 2.566-1.556 3.576-1.297 2.2.56 5.213 3.26 3.28 5.6z"/></g></svg>