<svg xmlns="http://www.w3.org/2000/svg" width="187" height="97" viewBox="0 0 186.643 96.425"><path fill="#81b3d3" d="M186.643 0H0l80.486 90.474c7.06 7.936 18.6 7.936 25.67 0L186.643 0z"/><path fill="#23a9e1" d="M43.242.72l49.523 58.35L142.09 1.074z"/><path d="M122.023 17.332l-15.187.084c6-6.93 8.697-6.2 15.187-.084zM80.85 22.7h26.68c-1.985-1.233-6.708-7.06-9.308-4.893-.212.178-7.505-8.848-12.296-4.5-4.18 3.8-6.12-.498-10.857 2.5-5.4 3.57 3.12 5.675 5.78 6.88z" fill="#fff"/><g fill="#491213"><path d="M93.104.016h-50.92V22.48L92.765 84l.34-.424 50.748-60.394V.016H93.104zm0 57.052l-.34.41L45.892 1.793h94.42L93.104 57.068z"/><path d="M92.765 57.477l.34-.41L120.68 24.78c-6.913.95-11.864 6.077-18.604 4.956-3.396-.564-3.498-2.514-4.47-4.456-.746-1.493-1.937-1.303-3.487-1.9-1.442-.565-2.277-1.738-5.162-1.06-2.528.593-2.807 4.518-5.952 4.293-1.69-.12-1.81-2.497-4.244-5.54-6.302-7.57-12.158-6.523-16.247.475l30.25 35.94z"/></g><path fill="#23a9e1" d="M88.745 70.916l4.02-6.5 4.004 6.5-4.004 6.514z"/><g fill="#491213"><path d="M124.567 20.258c-.035-.04-3.714-3.86-9.46-7.64-5.28-3.474-13.444-7.624-22.346-7.667-8.92-.05-16.97 4.087-22.156 7.566-5.632 3.78-9.18 7.6-9.215 7.648l-.706-.65c.036-.04 3.66-3.954 9.387-7.796 5.298-3.554 13.54-7.774 22.696-7.73 9.144.044 17.493 4.287 22.888 7.837 5.832 3.84 9.57 7.727 9.606 7.766l-.694.663zM48.363 1.2h.783v6.627h-.783z"/><path d="M54.116.933h.783v12.634h-.783zm6.247.084h.784v18.43h-.784zM66.78.933h.783v13.495h-.783zM73.42.82h.784V10h-.784z"/><path d="M80.33 1.074h.782v5.683h-.782zm6.346-.156h.783v4.104h-.783zM66.85 14.538L60.408 2.002l.697-.358 6.443 12.536zm6.72-4.26L66.9 2.07l.608-.494 6.67 8.207z"/><path d="M79.517 7.402L73.55 2.114l.52-.586 5.966 5.288zm7.377-2.144l-6.318-3.1.344-.703 6.318 3.1zm5.666-.464L86.9 2.17l.33-.7 5.67 2.623zm43.764-3.537h.783v5.78h-.783zM130.57.72h.784v12.973h-.784zm-6.245.537h.782v18.458h-.782zM117.9 1.03h.782v13.24h-.782zM111.268 1h.783v9h-.783z"/><path d="M104.358.68h.783v6.078h-.783zm-6.475.492h1.015v3.85h-1.015zm20.784 13.235l-.695-.358 6.395-12.405.695.358zm-6.723-4.247l-.605-.497 6.634-8.088.605.497z"/><path d="M105.94 7.4l-.52-.586 5.963-5.287.52.586zm-7.37-2.138l-.344-.705 6.32-3.084.344.705zm-5.658-.466l-.328-.7 5.67-2.618.328.7z"/></g><path d="M65.464 32.265c.513.618.9 1.284.806 2.116-.06.58-.936 1.55-.27 1.846l2.242-2.834c-.602-.15-5.365-5.848-5.442-6.472l-3.16 1.734c.164.66 1.294.005 1.854.046.828.06 1.425.56 1.953 1.152l-6.374 5.1c-.226.036-1.088-.6-1.1-.056-.006.262.852 1.014 1.015 1.2l2.23 2.653c.62-.282-.1-.732.205-1.243.232-.374 4.9-4.267 6.042-5.242zm-5.274-6.98c.443-.095.624.434.958-.056l-2.45-2.917c-.37-.442-.84-.916-.706.018.1.63-6.113 5.664-6.493 5.82-.48.197-.758-.417-1.1.097l2.193 2.608.747.882c.34.34.208-.672.224-.585-.1-.513.527-.948.855-1.228l5.78-4.64zm-8.77-.917c-1.767.523-3.65-.164-4.207-2.042-.543-1.835.614-3.757 2.07-4.8 1.44-1.032 3.6-.97 4.373.838.346.8.158 1.706-.094 2.502-.16.506-.597 1 .056 1.3l2.58-3.286c-1.055-.633-1.518-1.683-2.3-2.595-.882-1.07-2.064-2.08-3.482-2.284-2.87-.406-5.574 2.556-5.795 5.245-.136 1.457.374 2.848 1.246 4 .75.994 1.868 1.623 2.435 2.754.262.095 2.705-1.033 3.286-1.255-.052-.1-.1-.275-.17-.366-.76.226 0 0 0 0zm39.3 36.41c-1.15-.768-4.025-4.7-4.573-5.34l-.33-.392c-.01-.014-.284.225-.246.2-.173.145.134.573-.052.864-.793 1.24-5.758 4.983-6.016 5.163-.556.384-1.164-.16-1.5.316l3.02 3.582c.48.078.148-.815.2-1 .123-.37 2.633-2.445 3.55-3.2.336-.28.688.426.888.723.327.484.474 1 .298 1.568-.116.37-.717.92-.25 1.174l2.613-3.05c.252-.293-.566-.037-.47-.087-.37.2-.718.235-1.063-.028-.096-.07-1.1-1.082-1-1.166.43-.36.96-.963 1.517-1.1.862-.213 1.582 1.516 1.7 2.13a3.45 3.45 0 0 1-.076 1.75c-.124.387-.487.696.018.93l2.13-2.92a.708.708 0 0 1-.4-.096c-.127-.085.14.07 0 0zm-10.224-4.13c2.205-1.855 2.482-5.053.77-7.34-1.867-2.5-5.37-3.096-7.804-1.052-2.204 1.854-2.5 5.047-.758 7.325 2 2.62 5.2 2.918 7.793 1.066 1.156-.975-.1.07 0 0zm-.465-4.753c-.647 1.5-2.2 3.063-3.732 3.667-1.818.715-3.1-.827-2.36-2.553.65-1.516 2.203-3.057 3.737-3.666 1.852-.735 3.066.846 2.355 2.552-.38.9.07-.17 0 0zm-5.98-9.856c.475.06.926.55 1.27.042l-2.228-2.637c-.595.27.047.55-.194.97-.244.427-2.56.78-3.176.9.224-.644.895-2.615 1.157-2.835.544-.445.883.432 1.283-.14l-2.743-3.253c-.3-.366-.56-1.028-.98-.68.038-.03.006 1.472-.1 1.733-.086.236-.936 3.638-1.926 4.47-.493.414-2.237 1.934-2.702 2.097-.54.2-.825-.598-1.22-.038l2.5 2.957c.125.148.602.863.767.893.52.094.06-.893.113-1.086.15-.43 2.5-2.72 3.497-2.86 1.46-.205 3.2-.702 4.68-.524.34.042-.352-.043 0 0z" fill="#fff"/><path d="M67.792 22.874c-4.043-.167-2.35-3.954.395-4.808 2.6-.813 8.1 1.717 9.843 3.398-2.783.855-6.386.732-9.447.874-.226-3.12-.958-2.032-.8.536zm1.015 4.85c-2.04-1.58-1.396-5.266 1.763-4.146 4.005 2.084-.856 3.24-1.763 4.146 0 0 .042-.042 0 0zm8.488 7.7c-8.62-.07-2.792-13.322.14-12.52 3.373 1.073 2.995 12.622-.14 12.52zm6.105-4.33c-.84 2.5-2.36 2.968-2.192-.07.194-3.503 2.48-2.662 4.93-4.004 2.04-1.12 3.14-5.214 6.64-2.765 1.562 1.093 3.352.18 3.85 1.833-.025-.084-4.545 10.308-2.03 10.308-4.96 0-2.773-5.922-.874-9.9-1.847.885-4.842 6.688-2.382 7.643-1.28 1.686-5.194 3.945-7.234 2.298-1.552-1.25-.692-3.325-.7-5.344zm4.105 9.603c-3.5 1.046-8.122-1.207-2.5-2.34 3.483-.704 7.187.778 2.5 2.34.14-.042-.128.043 0 0zm4.37-.14c-.736-1.658.562-3.635 2.68-2.2 1.847 1.252-.85 3.106-2.68 2.2zm-2.945 4.668c-2.4-.747-10.537-.56-5.218-2.764 1.64-.68 10.154.098 5.218 2.764zm3.214-.354c-.007-.96-.512-2.68 1.354-1.946 2.235.88-1.354 2.65-1.354 1.946 0 0 0-.17 0 0zm7.22 3.668c-1.437-1.227-2.9-1.295-4.23 0-1.795-3.293-8.318-2.2-11.366-2.65 1.638 4.03 14.864 4.78 15.595 2.65zm-1.903 2.424c-3.15-.146-6.67-.563-9.646.084 1.86.466 6.396 1.795 2.172 2.918 1.515 2.168 3.973 2.03 5.584.127-.655-.322-1-.72-1.552-1.057 1.672-.303 3.234-1.267 3.442-2.072zm3.596-3.877c-5.288-3.112-3.95-5.427.354-7.586 2.254-1.13 7.324-5.208 9.447-3.85l-9.8 11.436z" fill="#dc6243"/><path fill="#f49774" d="M97.29 39.81c-4.48-4.6 6.69-4.178 8.487-5.796 1.31.437 10.768-8.283 13.07-7.74-1.655 1.94-5.22 8.136-7.775 8.136-1.964 0-3.95-.292-5.472 1.107-2.224 2.048-5.908 3.1-8.31 4.294z"/><path fill="#f4b1a4" d="M98.758 34.183c-2.453 1.32-4.772-3.907-.537-3.398 2.813.338 5.662-.237 8.348.226-1.927 2.29-4.706 3.553-7.81 3.172z"/><path fill="#491213" d="M92.167 1.426h.938V4.74h-.938z"/><g fill="#fff"><path d="M111.4 52.466c.2.648.3 1.332.215 2-.107.873-.98 2.925-2.173 2.34-1.17-.573-2.194-1.728-3.188-2.552.802-.936 1.507-1.75 2.854-1.295.37.123.688-.036.3-.262-.405-.234-3.114-1.965-3.26-1.8-.27.3.528.868.22 1.473-.23.447-.6.834-.932 1.22-.72-.607-1.923-1.253-1.057-2.256.542-.66 1.25-1.172 2.098-1.342.565-.114 1.84.4 2.006-.224l-3.258-1.565c.177.8-3.35 4.525-4.13 5.464-.113.137-.658.6-.664.797-.01.43.622.097.657.084.486-.18 6.816 5.1 6.973 5.47.1.28-.22.574-.03.732-.01-.01.228.216.253.184.4-.468 4.522-5.975 5.374-6.217l-2.368-3.652c-.6.258-.02.95.1 1.4zm-6.17 6.704c-2.077-1.34-5.596 1.28-6.125 1.53-1.04.492-1.8-.543-1.25-1.502.47-.83 1.393-1.234 2.3-1.3.277-.017 1.35.198 1.46.026.13-.202.228-.22.042-.345L99.1 55.855c-.176 1.055-1.385 1.727-2.076 2.44-.823.854-1.52 1.93-1.52 3.156 0 1.135.68 2.142 1.677 2.66 1.136.592 2.317.116 3.324-.5.627-.392 1.254-.856 1.924-1.17.996-.467 2.304-.062 1.953 1.27-.282 1.073-1.35 2.06-2.405 2.34-.616.164-1.27.1-1.872-.1-.432-.142-.993-.734-1.23-.1l3.482 2.537c.103-.76.522-1.1 1.086-1.564.735-.645 1.438-1.32 1.994-2.13 1.16-1.693 1.538-4.062-.205-5.514zm0 0c.925.598-.59-.494 0 0zm36.69-39.525c-.73.73-8.42-2.34-8.982-2.764-.3-.116-.3-1.32-.705-.833l-2.472 2.976c-.26.314-.537.458-.038.72.837-.42 5.417 7.346 5.008 8.46-.725.376-6.915-5.057-7.08-5.415-.052-.146.273-1.02-.2-.945-.23.036-.743.896-.9 1.072l-.9 1.072c.332.485.517-.02.96.042.383.077 1.844 1.33 2.24 1.664l-2.934.113c-.903.112-.422-.663-1.015-.93l-3.603 4.37c-.054.065-.047.032.05.112.33.273.104.168.568.006.506-.177 6.56 4.93 6.776 5.2.377.45-.154.975.4 1.22l1.798-2.184c.1-.1.14-.1.02-.198-.427-.353-.476.212-1.002.154-.533-.1-4.395-3.37-5.895-4.6l8.2-.304c.3-.01 1.14.896 1.068 1.216-.08.378-.463.558.054.794l1.456-1.734.227-.282a.74.74 0 0 0 .21-.265l.168-.2c.425-.485 1.8-2.006 1.635-2.15-.46-.4-.685.466-1.298-.054-.348-.25-1.223-1.788-1.443-2.162-.264-.45.608-.897.964-1.12.776-.482 3.247-1.183 3.482.348.04.258-.27.55-.084.704.044.037.204.242.27.163l3.3-3.97c-.098-.082-.207-.224-.324-.27zm-7.374 2.156c.077-.05.153-.098 0 0l-.084.054.082-.052a5.72 5.72 0 0 0-.958.761l-1.564-2.693 3.524 1.48a3.72 3.72 0 0 0-1 .45zm-9.746 11.21c-2.375-1.98-5.63-1.404-7.586.832-1.903 2.312-1.712 5.663.605 7.615 2.34 1.926 5.67 1.438 7.572-.846 1.898-2.303 1.768-5.668-.6-7.6zm-.28 6.614l-.026.027c-1.232 1.292-3.358.096-4.505-.73s-3.1-2.57-1.856-4.104c1.056-1.287 3.124-.23 4.2.482 1.2.803 3.412 2.596 2.276 4.216.074-.1.126-.148-.08.1z"/><path d="M124.8 33.012c1.17.96-.253-.2 0 0zm-.308 6.64l.026-.027.08-.1-.106.137zm-6.282 2.483c.112.094.273.224-.063-.057-2.835-2.127-6.194-1.504-8.402 1.157l-2.96 3.567c.35.512.763-.118 1.273.176.436.25 6.244 5.1 6.34 5.366.164.458-.255.548.144.875.172.143 4.536-5.245 4.935-6.2.7-1.755.14-3.678-1.265-4.893zM116.9 48.9c-.24.296-.044.054-.665.65-.306.293-6.438-4.675-6.192-4.944.835-.918 2.567-1.556 3.577-1.297 2.2.56 5.213 3.26 3.28 5.6z"/></g></svg>