<svg xmlns="http://www.w3.org/2000/svg" width="460" height="351" viewBox="0 0 459.754 350.074"><path d="M165.422 70l-.203.23c-1.353 1.47-3.022 2.188-4.52 2.217l2.822-4.865c1.813-3.14.144-6.104-2.68-6.104-2.303 0-4.088.92-5.815 3.916l-1.468 2.562-1.227 2.098-.154.177c-2.16 2.506-4.262 4.5-5.586 4.5-.662 0-1.037-.46-.346-1.64l6.422-11.2h2.446l.864-1.44H153.5l2.822-4.893h-2.994l-2.822 4.895H147.8l-.864 1.44h2.735l-6.02 10.423c-1.267 2.217-.374 4.262 2.044 4.262 1.74 0 3.662-1.3 5.512-3.084-.006 3.816 5.297 4.562 8.54.463h.66c1.785 0 4.606-1.094 6.134-2.907-.2-.405-.716-.865-1.12-1.038zm-6.392.203h-.145c-.98 0-1.756.806-1.756 1.785a1.96 1.96 0 0 0 .29 1.01l-.03.057c-1.4 2.42-4.838 1.958-3.053-1.15l2.274-3.944 1.44-2.447c2.102-3.57 4.98-2.16 3.166.95l-2.186 3.74zM206.877 70l-.2.23c-2.16 2.506-4.924 4.5-7.025 4.5-1.844 0-2.938-1.15-1.555-3.57l.287-.52c1.93.807 5.558.432 7.804-3.455l.432-.75c1.612-2.764.058-4.837-2.4-4.837-2.42 0-4.348 1.268-5.615 3.455l-2.906 4.984-.173.2c-2.16 2.504-4.26 4.5-5.586 4.5-.66 0-1.036-.46-.346-1.64l4.32-7.57c1.295-2.274.06-3.916-1.612-3.916-1.296 0-2.68.72-4.175 2.274l4.78-8.32h-2.994l-8.354 14.492-.168.2c-2.16 2.506-4.26 4.5-5.586 4.5-.662 0-1.037-.46-.345-1.64l6.42-11.2h2.447l.864-1.44h-2.476l2.822-4.893h-2.994l-2.822 4.895h-2.706l-.864 1.44h2.735l-6.02 10.423c-1.267 2.217-.373 4.262 2.045 4.262 1.213 0 2.517-.64 3.82-1.627l-.77 1.338h3.022l4.55-7.916c4.606-5.8 6.65-5.04 5.354-2.822L187 72.314c-1.267 2.218-.373 4.263 2.045 4.263 1.78 0 3.757-1.375 5.646-3.217.145 1.864 1.653 3.217 4.055 3.217 3.396 0 6.766-2.65 9.242-5.53-.196-.404-.714-.864-1.118-1.037zm-5.7-4.204c1.73-2.965 4.78-2.477 2.996.634l-.433.75c-1.438 2.447-3.368 2.4-4.5 1.987l1.928-3.37zM316.047 70l-.2.23a18.81 18.81 0 0 1-3.6 3.254c.95-2.85.75-7.228 2.593-11.057l-2.246-1.2c-1.238 1.7-3.944 5.615-6.65 8.782l-.2.23c-2.158 2.506-4.26 4.5-5.586 4.5-.662 0-1.036-.46-.345-1.64l6.392-11.2h-2.994l-5.326 9.3c-2.274 2.072-4.03 3.225-4.606 2.965-.75-.315 0-1.438.374-2.072L299.5 61.88h-3l-4.695 8.124-.197.227c-1.354 1.47-3.023 2.188-4.52 2.217l2.82-4.865c1.813-3.14.146-6.104-2.678-6.104-2.304 0-4.1.92-5.815 3.916l-1.47 2.562-1.227 2.097-.154.178c-2.16 2.506-4.924 4.5-7.025 4.5-1.843 0-2.938-1.15-1.555-3.57l.288-.52c1.93.807 5.558.432 7.803-3.455l.433-.75c1.6-2.764.058-4.837-2.4-4.837-2.42 0-4.348 1.268-5.615 3.455L267.6 70.03l-.174.2c-2.477 2.85-4.606 4.7-6.97 5.7l6.7-11.46h-1.757c0-1.238-1.267-2.88-3.138-2.88-1.612 0-3.858 1.268-5.126 3.455L254.274 70l-.208.226c-2.16 2.504-4.262 4.5-5.586 4.5-.662 0-1.036-.46-.346-1.64l2.994-5.24c1.036-1.813.547-2.88-.433-4.06l-1.67-2.017c-.433-.547-.433-1.15.173-1.728l-1.555-1.7c-1.7 1.525-1.844 3.225-.777 4.607l.26.346c-1.324 1.872-3.1 4.404-5.068 6.7l.002.004-.2.23c-1.354 1.467-3.022 2.188-4.52 2.217l2.82-4.866c1.814-3.138.145-6.104-2.678-6.104-2.303 0-4.088.922-5.814 3.916l-1.47 2.562-1.228 2.1-.152.175c-2.477 2.85-4.607 4.7-6.97 5.7l6.7-11.46H226.8c0-1.238-1.267-2.88-3.14-2.88-1.6 0-3.857 1.268-5.125 3.455l-4.203 7.256c-1.268 2.217-.375 4.262 2.043 4.262.836 0 1.844-.375 2.852-1.008l-.835 1.4c-4.03 1.238-6.565 2.88-6.565 5.125 0 2.88 4.405 3.484 6.565-.2l2.274-3.945c2.396-.746 4.743-2.155 7.18-4.48-.02 3.832 5.294 4.585 8.54.48h.662c1.785 0 4.607-1.094 6.133-2.908 1.438-1.67 2.562-3.168 4.95-6.42l.402.5c.374.5.52 1.094.174 1.698l-3.168 5.5c-1.268 2.218-.375 4.263 2.045 4.263 1.518 0 3.176-.998 4.8-2.43-.05 1.392.88 2.43 2.598 2.43.835 0 1.843-.375 2.852-1l-.836 1.4c-4.03 1.238-6.563 2.88-6.563 5.125 0 2.88 4.405 3.483 6.563-.2l2.274-3.944c2.44-.762 4.83-2.215 7.315-4.617.133 1.875 1.646 3.236 4.057 3.236 2.438 0 4.86-1.367 6.947-3.2-.117 3.92 5.267 4.72 8.54.58h.662c.938 0 2.158-.3 3.33-.856-.806 2.08-.063 3.478 1.65 3.478 1.642 0 3.483-1.498 4.923-2.88-.288 1.6.662 2.88 2.562 2.88 2.477 0 5.326-2.648 7.804-5.528h-.001c1.697-1.96 3.195-4.06 4.26-5.47-1.18 3.108-.548 8.694-3.397 8.694-1.008 0-1.4-1.094-1.4-1.094l-1.872.98s.547 2.42 3.282 2.42c.287 0 .548-.03.834-.06.03 0 .06-.028.088-.028 3.052-.402 6.074-2.82 8.32-5.44-.172-.46-.7-.922-1.122-1.037zm-42.983-4.204c1.728-2.965 4.778-2.477 2.993.634l-.432.75c-1.44 2.447-3.37 2.4-4.492 1.987l1.93-3.37zm-57.177 15.606c-.633 1.123-1.64.95-1.64.145 0-.777.72-1.67 2.994-2.562l-1.353 2.417zm1.383-6.68c-.662 0-1.037-.46-.346-1.64l4.176-7.285c1.6-2.793 4.8-2.073 3.34.634l-2.273 3.974c-1.816 2.908-3.63 4.318-4.897 4.318zm18.397-4.52h-.145c-.98 0-1.756.806-1.756 1.785a1.98 1.98 0 0 0 .287 1.009l-.028.057c-1.4 2.42-4.837 1.958-3.052-1.15l2.273-3.944 1.44-2.447c2.104-3.57 4.98-2.16 3.168.95l-2.186 3.74zm18.827 11.2c-.634 1.123-1.642.95-1.642.145 0-.777.72-1.67 2.994-2.562l-1.352 2.417zm1.38-6.68c-.662 0-1.035-.46-.346-1.64l4.176-7.285c1.612-2.793 4.8-2.073 3.34.634l-2.274 3.974c-1.813 2.908-3.63 4.318-4.896 4.318zm29.54-4.52h-.145c-.98 0-1.756.806-1.756 1.785a1.98 1.98 0 0 0 .287 1.009l-.028.057c-1.4 2.42-4.837 1.958-3.052-1.15l2.273-3.944 1.44-2.447c2.103-3.57 4.98-2.16 3.168.95l-2.186 3.74zm-183.992-3.38h28.918v1.957h-28.918zm227 0h28.918v1.957h-28.918z" fill="#766458"/><path d="M163.183 0h7.707l-1.2 44.918h-14.525l-1.975-18.545-1.975 18.545h-14.6L135.47 0h7.645l.637 37.152h.828L149.36 0h7.58l4.906 37.152h.765L163.183 0zm31.85 37.152v7.766h-20.896V0h20.896v7.7h-13.25v10.844h10.575v7.7h-10.575v10.908h13.25zm21.34 0v7.766H198.1V0h7.646v37.152h10.637zm16.244-8.792l7.708-1.797v13.604c0 2.567-2.166 4.75-4.714 4.75h-11.47c-2.6 0-4.713-2.182-4.713-4.75V4.75c0-2.632 2.103-4.75 4.713-4.75h11.46c2.548 0 4.714 2.117 4.714 4.75v9.112l-7.708 1.796V7.7h-5.543v29.452h5.543l.001-8.8zM261.1 0c2.55 0 4.715 2.117 4.715 4.75v35.42c0 2.567-2.166 4.75-4.715 4.75h-11.47c-2.6 0-4.714-2.182-4.714-4.75V4.75A4.703 4.703 0 0 1 249.62 0h11.468zm-2.994 7.7h-5.543v29.452h5.543V7.7zm32.74-7.7h7.58v44.918h-7.645V22.844l-3.06 11.422h-7.453l-2.994-11.422v22.074h-7.646V0h7.58l6.816 21.688L290.837 0zm32.297 37.152v7.766h-20.896V0h20.896v7.7h-13.252v10.844h10.575v7.7h-10.575v10.908h13.252z" fill="#81b3d3"/><path d="M44.467 157.6c-3.572-2.98-8.14-4.963-12.902-4.963-3.572 0-8.338 2.084-8.338 6.253 0 4.368 5.26 6.055 8.636 7.146l4.964 1.5c10.422 3.077 18.46 8.337 18.46 20.447 0 7.445-1.787 15.088-7.742 20.15-5.855 4.963-13.697 7.047-21.24 7.047-9.43 0-18.66-3.176-26.305-8.537l8.34-15.673c4.865 4.268 10.62 7.742 17.27 7.742 4.566 0 9.43-2.283 9.43-7.545 0-5.46-7.643-7.344-11.812-8.535-12.208-3.475-20.25-6.65-20.25-21.143 0-15.188 10.818-25.112 25.807-25.112 7.543 0 16.775 2.382 23.426 6.154l-7.745 15.1zm47.365-2.77v12.506h21.937v16.48H91.832v12.9h23.127v16.48H72.377v-74.84h42.582v16.477H91.832zm37.586-16.476h27.594c20.844 0 38.016 16.377 38.016 37.42s-17.27 37.42-38.016 37.42h-27.594v-74.84zm19.455 58.364h4.367c11.612 0 21.54-6.352 21.54-20.943 0-13.4-8.834-20.943-21.34-20.943h-4.565v41.886zm138-22.333c0 24.22-17.37 41.292-41.393 41.292s-41.4-17.072-41.4-41.292c0-22.632 19.852-38.513 41.4-38.513s41.393 15.88 41.393 38.513zm-62.534.1c0 12.904 9.53 22.333 21.14 22.333s21.143-9.43 21.143-22.333c0-10.323-9.527-19.752-21.143-19.752s-21.14 9.43-21.14 19.752zm72.9-36.13h19.455l35.635 45.758h.197v-45.758h19.453v74.84h-19.453l-35.635-45.857h-.197v45.857H297.24v-74.84zm110.106 61.838l-5.16 13.002H381.54l28.785-74.84h21.242l28.188 74.84H439l-4.863-13.002h-26.8zm13.6-38.7h-.2l-8.04 23.823h16.178l-7.94-23.823zM108.08 287.74c7.658-2.6 8.242-12.18.693-12.18-2.08 0-4.56 1.46-6.272 4.45l-10.2 17.65c-.475.84-.947 1.532-1.458 2.15-2.626-3.6-1.86-9.007 1.823-11.378l-1.532-1.934c-7.95 5.07-5.616 19.693 7.66 19.693 11.342.002 16.593-13.6 9.3-18.45zm-9.372 15.535c-2.26 0-4.048-.5-5.47-1.312.656-.767 1.312-1.715 1.896-2.7l6.38-11.05 1.02.108c8.9 1.862 5.362 14.953-3.828 14.953zM102.793 286l3.063-5.25c2.77-4.776 6.3-1.97 4.412 1.604-1.456 2.735-3.6 3.574-7.475 3.647zm37.367 14.002c-.63 2.248.572 4.076 3.146 4.076 1.53 0 3.428-.984 5.25-2.48.184 1.46 1.35 2.48 3.283 2.48 2.02 0 4.234-1.395 6.393-3.357-.42 2.048.54 3.357 2.4 3.357 2.08 0 4.414-1.896 6.236-3.646-.365 2.042.84 3.646 3.246 3.646 3.137 0 6.747-3.354 9.883-7.002-.025-.05-.068-.102-.1-.15 2.097-2.438 3.946-5.026 5.27-6.777-1.496 3.938-.693 11.014-4.305 11.014-1.275 0-1.787-1.386-1.787-1.386l-2.37 1.24s.693 3.062 4.157 3.062c.365 0 .692-.037 1.058-.072.037 0 .073-.036.1-.036 2.786-.368 5.55-2.064 7.943-4.225.058 2.495 1.994 4.333 5.145 4.333 4.303 0 8.57-3.354 11.707-7.002-.255-.5-.912-1.094-1.422-1.312l-.255.292c-2.735 3.172-6.236 5.688-8.897 5.688-2.334 0-3.72-1.46-1.97-4.52l.365-.657c2.442 1.02 7.038.547 9.883-4.376l.547-.948c2.042-3.5.073-6.127-3.026-6.127-3.063 0-5.508 1.605-7.1 4.376l-3.684 6.318c-.035-.012-.07-.037-.104-.046l-.255.292a23.68 23.68 0 0 1-4.559 4.121c1.203-3.6.948-9.153 3.282-14.004l-2.844-1.532c-1.568 2.15-4.996 7.1-8.425 11.123.033.046.074.1.1.138l-.136.154c-2.735 3.172-5.397 5.688-7.075 5.688-.838 0-1.312-.583-.438-2.08l8.096-14.187h-3.793l-6.747 11.78c-2.88 2.626-5.104 4.084-5.835 3.756-.947-.4 0-1.823.475-2.625l7.402-12.9h-3.793l-6.036 10.446c-.098-.06-.196-.123-.288-.162l-.255.292c-2.735 3.172-5.397 5.688-7.075 5.688-.838 0-1.312-.583-.438-2.08l6.127-10.722H156.5c.146-1.605-1.494-3.83-3.975-3.83-2.042 0-4.887 1.605-6.5 4.376l-3.846 6.637a2.894 2.894 0 0 0-.577-.364l-.255.292c-2.735 3.172-6.236 5.688-8.897 5.688-2.334 0-3.72-1.46-1.97-4.52l3.902-6.783c2.188-3.756 6.054-3.136 3.8.802l-.547.948h3.1l.547-.948c2.042-3.5.073-6.127-3.026-6.127-3.063 0-5.508 1.605-7.1 4.376l-3.77 6.467a2.47 2.47 0 0 0-.348-.194l-.255.292c-2.735 3.172-6.236 5.688-8.897 5.688-2.335 0-3.72-1.46-1.97-4.52l.365-.657c2.443 1.02 7.04.547 9.883-4.376l.547-.948c2.042-3.5.073-6.127-3.027-6.127-3.062 0-5.507 1.605-7.1 4.376l-3.976 6.82c-2.37 4.048-.328 7.768 4.157 7.768 3.34 0 6.657-2.023 9.442-4.635-.098 2.646 1.865 4.635 5.14 4.635 3.1.005 6.176-1.735 8.828-4.07zm58.03-9.563c2.188-3.756 6.054-3.136 3.8.802l-.547.948c-1.822 3.1-4.267 3.027-5.688 2.516l2.444-4.266zm-54.2 9.227l5.288-9.227c2.042-3.538 6.1-2.626 4.23.802l-2.953 5.18c-2.297 3.6-4.56 5.323-6.127 5.323-.837 0-1.312-.583-.437-2.078zm-24.184-9.227c2.188-3.756 6.054-3.136 3.8.802l-.547.948c-1.822 3.1-4.267 3.027-5.688 2.516l2.444-4.266zm128.584 13.64c4.303 0 8.57-3.354 11.706-7.002-.254-.5-.9-1.094-1.422-1.312l-.254.292c-2.736 3.172-6.236 5.688-8.9 5.688-2.334 0-3.72-1.46-1.97-4.52l.365-.657c2.444 1.02 7.038.547 9.883-4.376l.547-.948c2.043-3.5.074-6.127-3.027-6.127-3.06 0-5.505 1.605-7.1 4.376l-3.693 6.336c-.037-.02-.077-.048-.113-.063l-.256.292c-2.734 3.172-5.396 5.688-7.074 5.688-.84 0-1.312-.583-.438-2.08l5.47-9.6c1.642-2.88.073-4.96-2.042-4.96-1.643 0-3.393.912-5.288 2.88l6.054-10.54h-3.793l-10.697 18.56a2.47 2.47 0 0 0-.434-.251l-.256.292c-2.735 3.172-5.396 5.688-7.075 5.688-.838 0-1.312-.583-.438-2.08l8.133-14.187h3.1l1.095-1.823h-3.137l3.574-6.2h-3.793l-3.574 6.2h-3.428l-1.094 1.823h3.463l-7.622 13.204c-1.604 2.808-.474 5.396 2.6 5.396 1.885 0 3.94-1.216 5.962-2.975l-1.504 2.6h3.83l5.762-10.03c5.835-7.33 8.425-6.382 6.783-3.574l-4.923 8.57c-1.604 2.808-.475 5.396 2.6 5.396 2.305 0 4.864-1.812 7.304-4.22.1 2.44 2.04 4.222 5.145 4.222zm3.063-13.64c2.188-3.756 6.055-3.136 3.793.802l-.547.948c-1.824 3.1-4.268 3.027-5.7 2.516l2.444-4.266zm111.954 5.327l-.256.292c-2.732 3.172-5.396 5.688-7.074 5.688-.838 0-1.312-.583-.438-2.08l12.838-22.2h-3.793l-5.58 9.628c-.656-1.058-1.896-1.97-3.465-1.97-2.043 0-4.887 1.605-6.492 4.376l-3.7 6.406-.236-.133-.256.292c-2.734 3.172-5.396 5.688-7.074 5.688-.84 0-1.312-.583-.438-2.08l5.47-9.6c1.643-2.88.074-4.96-2.04-4.96-1.643 0-3.355.875-5.252 2.845l1.422-2.48h-3.793l-6.06 10.487a2.622 2.622 0 0 0-.36-.203l-.256.292c-2.734 3.172-5.396 5.688-7.074 5.688-.838 0-1.312-.583-.438-2.08l6.127-10.722h-2.152c.146-1.604-1.494-3.83-3.975-3.83-2.043 0-4.9 1.605-6.492 4.376l-3.666 6.33-.207.235c-2.734 3.172-5.396 5.688-7.074 5.688-.838 0-1.312-.583-.438-2.08l3.793-6.637c1.312-2.298.7-3.646-.547-5.142l-2.115-2.554c-.547-.692-.547-1.458.22-2.188l-1.97-2.15c-2.152 1.934-2.334 4.084-.986 5.835l.33.438c-1.678 2.37-3.94 5.58-6.42 8.497a3.49 3.49 0 0 0 .258.321c-3.125 3.593-5.78 5.918-8.762 7.2l4.812-8.242H286l-.4.657c-2.006 3.537-4.305 6.054-7.258 6.054-2.6 0-3.062-2.6-.803-6.455l1.06-1.86c.7.108 1.387.183 2.15.183 13.494 0 20.02-18.052 8.135-18.052-2.08 0-4.56 1.46-6.273 4.45l-5.908 10.175c-2.225-1.167-3.4-3.282-3.4-5.397 0-1.75.803-3.5 2.44-4.776l-1.238-2.226c-2.7 1.934-3.902 4.522-3.902 7.075 0 3.027 1.715 5.944 4.777 7.55l-1.13 1.97c-2.662 4.595-2.188 9.7 3.174 9.7 1.604 0 2.953-.474 4.12-1.204l-.986 1.715c-5.14 1.567-8.314 3.646-8.314 6.5 0 3.647 5.58 4.413 8.314-.255l2.918-4.996c3.94-1.24 7.805-3.938 11.963-8.752a2.306 2.306 0 0 0-.236-.356c1.684-1.98 3.113-3.9 5.97-7.775l.5.62c.475.62.656 1.386.22 2.152l-4.012 6.963c-1.605 2.808-.475 5.396 2.6 5.396 1.906 0 3.988-1.244 6.033-3.036-.045 1.745 1.148 3.036 3.3 3.036 1.53 0 3.428-.984 5.25-2.48.184 1.46 1.352 2.48 3.283 2.48 1.816 0 3.8-1.13 5.742-2.785l-1.398 2.42h3.828l5.8-10.103c5.8-7.257 8.4-6.3 6.746-3.5l-4.922 8.57c-1.604 2.808-.475 5.396 2.588 5.396 2.018 0 4.227-1.388 6.38-3.346-.2 1.9 1.008 3.346 3.295 3.346 1.53 0 3.428-.984 5.252-2.48.182 1.46 1.35 2.48 3.28 2.48 3.137 0 6.746-3.354 9.883-7.002a3.31 3.31 0 0 0-1.425-1.307zm-77.962-14.15c1.13-1.933 2.37-2.77 3.43-2.77 6.018 0 1.787 12.253-8.133 12.253h-.766l5.47-9.482zm-8.06 28.6c-.8 1.422-2.078 1.204-2.078.184 0-.985.875-2.115 3.793-3.246l-1.715 3.062zm39.693-13.784c-2.3 3.6-4.56 5.323-6.127 5.323-.84 0-1.312-.583-.438-2.08l5.287-9.227c2.043-3.538 6.1-2.626 4.23.802l-2.952 5.18zm36.702-.22c-2.3 3.756-4.633 5.543-6.236 5.543-.838 0-1.312-.583-.438-2.08l5.287-9.227c2.043-3.538 6.1-2.626 4.23.802h.035l-2.878 4.96zm-117.077 35.563l-.255.293c-2.734 3.172-5.396 5.688-7.074 5.688-.84 0-1.312-.583-.438-2.08l5.47-9.6c1.642-2.88.072-4.96-2.043-4.96-1.642 0-3.354.875-5.25 2.845l1.422-2.48h-3.793l-6.1 10.574a3.405 3.405 0 0 0-.484-.3l-.256.293c-1.713 1.858-3.83 2.77-5.725 2.808l3.573-6.163c2.297-3.976.183-7.73-3.392-7.73-2.918 0-5.178 1.167-7.367 4.96l-1.86 3.245-1.626 2.78a2.407 2.407 0 0 0-.343-.192l-.255.293c-3.137 3.608-5.8 5.942-8.8 7.22l10.395-17.797h-3.793l-6.7 11.67c-2.918 2.698-5.18 4.193-5.908 3.865-.948-.4 0-1.823.474-2.625l7.403-12.9h-3.793l-6.05 10.47c-.113-.07-.227-.142-.332-.187l-.255.293c-2.735 3.172-5.397 5.688-7.075 5.688-.838 0-1.312-.583-.438-2.08l5.47-9.6c1.642-2.88.073-4.96-2.042-4.96-1.64 0-3.355.875-5.25 2.845l1.423-2.48h-3.794l-6.062 10.486a2.52 2.52 0 0 0-.36-.203l-.255.293c-2.734 3.172-5.396 5.688-7.075 5.688-.838 0-1.312-.583-.438-2.08l6.128-10.72h-2.152c.146-1.604-1.495-3.83-3.976-3.83-2.04 0-4.887 1.605-6.5 4.377l-3.918 6.763c-.26-.235-.56-.417-.83-.5l-.255.293c-2.735 3.172-6.1 5.688-9.848 5.688-2.588 0-4.156-2.6-1.896-6.455l1.058-1.86c.693.108 1.387.184 2.15.184 4.048 0 8.644-2.08 11.634-7.295 1.057-1.86 1.53-3.6 1.53-5.104 0-3.43-2.225-5.652-5.032-5.652-2.08 0-4.56 1.46-6.272 4.45l-5.908 10.175c-2.225-1.167-3.393-3.282-3.393-5.397 0-1.75.803-3.5 2.443-4.776l-1.24-2.226c-2.7 1.935-3.902 4.52-3.902 7.075 0 3.026 1.715 5.944 4.777 7.55l-1.13 1.97c-2.66 4.595-1.094 9.7 4.267 9.7 4.242 0 7.354-1.9 9.97-4.372-.826 2.384.374 4.372 3.06 4.372 1.532 0 3.428-.984 5.252-2.48.182 1.46 1.35 2.48 3.28 2.48 1.816 0 3.792-1.13 5.742-2.783l-1.398 2.42h3.83l5.798-10.103c5.8-7.258 8.4-6.3 6.748-3.502l-4.923 8.568c-1.604 2.8-.474 5.396 2.6 5.396 2.04 0 4.282-1.425 6.465-3.423-.455 2.086.508 3.423 2.397 3.423 1.824 0 3.9-1.53 5.616-3.062l-2.08 3.574c-5.142 1.53-8.35 3.646-8.35 6.5 0 3.647 5.58 4.413 8.313-.255l2.917-4.996c3.17-.998 6.297-2.965 9.562-6.195-.523 5.297 6.533 6.505 10.787 1.126h.838c1.385 0 3.26-.523 4.953-1.455l-2.55 4.4h3.83l5.798-10.103c5.8-7.258 8.4-6.3 6.747-3.502l-4.923 8.57c-1.604 2.8-.475 5.396 2.6 5.396 3.137 0 6.746-3.354 9.883-7.002-.256-.513-.912-1.097-1.423-1.315zm-94.387-14.15c1.13-1.933 2.37-2.77 3.428-2.77 1.423 0 2.08.947 2.08 2.334 0 3.538-4.303 9.92-10.2 9.92h-.766l5.47-9.482zm13.355 14.807c-2.297 3.6-4.56 5.323-6.127 5.323-.838 0-1.312-.583-.438-2.08l5.288-9.227c2.042-3.537 6.1-2.625 4.23.803l-2.952 5.18zm28.85 13.783c-.803 1.423-2.08 1.204-2.08.185 0-.985.912-2.115 3.83-3.246l-1.75 3.06zm25.528-14.184h-.184c-1.24 0-2.225 1.02-2.225 2.262 0 .475.146.9.365 1.275l-.037.073c-1.786 3.062-6.127 2.48-3.865-1.46l2.88-4.996 1.823-3.1c2.663-4.52 6.3-2.734 4.012 1.204l-2.77 4.742zm114.56 1.057c-.22-.583-.875-1.167-1.422-1.312l-.256.293a23.67 23.67 0 0 1-4.559 4.12c1.203-3.6.947-9.153 3.28-14.004l-2.846-1.532c-1.566 2.15-4.996 7.1-8.424 11.123.006.01.016.018.02.025-.016-.007-.03-.02-.047-.025l-.254.293c-2.736 3.172-5.396 5.688-7.076 5.688-.838 0-1.64-.84-1.64-2.553v-1.568c2.662.328 5.47-1.423 7.258-4.52l1.02-1.75c3.535-6.054-2.227-8.06-6.092-4.52l5.396-9.373h-3.793L294.37 332.23a3.045 3.045 0 0 0-.693-.46l-.256.293c-2.734 3.172-6.236 5.688-8.898 5.688-2.334 0-3.72-1.46-1.97-4.52l3.9-6.783c2.2-3.756 6.055-3.136 3.793.803l-.547.948h3.102l.547-.948c2.04-3.5.072-6.127-3.027-6.127-3.062 0-5.508 1.605-7.1 4.377l-3.732 6.404c-.078-.047-.16-.1-.234-.133l-.256.293c-2.734 3.172-5.396 5.688-7.074 5.688-.84 0-1.312-.583-.438-2.08l8.096-14.186h-3.793l-6.746 11.78c-2.883 2.625-5.105 4.084-5.836 3.756-.947-.4 0-1.823.475-2.625l7.402-12.9h-3.793l-7.365 12.744a22.642 22.642 0 0 1-2.45 1.952c1.203-3.6.947-9.153 3.28-14.004l-2.844-1.532c-1.568 2.15-10.32 13.75-13.75 17.76.327.474.876.948 1.423 1.313 2.15-2.48 9.372-11.78 10.723-13.566-1.496 3.938-.693 11.014-4.305 11.014-1.275 0-1.787-1.387-1.787-1.387l-2.37 1.24s.692 3.062 4.157 3.062c.365 0 .693-.036 1.06-.072.035 0 .072-.036.107-.036 1.928-.255 3.842-1.143 5.63-2.38-.012 1.542.92 2.487 2.5 2.487 2.076 0 4.412-1.896 6.234-3.646-.363 2.043.838 3.646 3.246 3.646 2.355 0 4.98-1.893 7.467-4.38.033 2.52 1.975 4.38 5.145 4.38 3.078 0 6.137-1.72 8.775-4.03l-2.113 3.668h3.83l4.34-7.55v3.026c0 3.245.62 4.887 3.682 4.887 3.137 0 6.748-3.354 9.885-7.002-.006-.01-.018-.02-.02-.034a.51.51 0 0 0 .047.034c2.152-2.48 4.05-5.142 5.396-6.93-1.494 3.938-.7 11.014-4.303 11.014-1.275 0-1.787-1.387-1.787-1.387l-2.37 1.24s.693 3.062 4.158 3.062c.363 0 .7-.036 1.06-.072.035 0 .07-.036.107-.036 3.866-.514 7.696-3.576 10.54-6.895zm-25.188-3l1.094-1.896c4.377-6.1 7.367-4.413 6.018-2.115l-1.822 3.136c-1.134 1.97-4.452 3.355-5.3.875zm25.042 5.578c-1.24 0-2.2.984-2.2 2.226s.95 2.188 2.2 2.188 2.225-.947 2.225-2.188a2.21 2.21 0 0 0-2.225-2.226zm.182-1.495h3.83l11.887-20.715h-3.8zm-244.244-56.6c0 .293-.058.587-.17.88a2.39 2.39 0 0 1-.507.797 2.605 2.605 0 0 1-.83.574 2.67 2.67 0 0 1-1.1.22 3.44 3.44 0 0 1-1.303-.253 2.93 2.93 0 0 1-1.064-.73 3.1 3.1 0 0 1-.575-1.049 4.017 4.017 0 0 1-.203-1.285c0-.855.15-1.646.457-2.368a5.99 5.99 0 0 1 1.302-1.928 5.77 5.77 0 0 1 .846-.694 9.03 9.03 0 0 1 .896-.54l.727-.354.373-.17 1.353 1.996c-.25.1-.524.2-.83.354s-.592.327-.86.54a2.93 2.93 0 0 0-.678.761 2.17 2.17 0 0 0-.304 1.016c.653 0 1.23.2 1.725.575s.743.935.743 1.656zm7.866 0c0 .293-.057.587-.17.88a2.39 2.39 0 0 1-.506.796 2.59 2.59 0 0 1-.83.574c-.327.147-.693.22-1.1.22a3.44 3.44 0 0 1-1.302-.253 2.91 2.91 0 0 1-1.065-.728c-.248-.293-.44-.643-.574-1.05s-.203-.834-.203-1.285c0-.855.152-1.646.457-2.368a6.02 6.02 0 0 1 1.302-1.928 5.61 5.61 0 0 1 .847-.693c.314-.214.613-.394.896-.54l.728-.354.372-.17 1.353 1.996c-.248.1-.523.2-.828.354a4.53 4.53 0 0 0-.863.54 2.89 2.89 0 0 0-.676.761 2.134 2.134 0 0 0-.305 1.016c.653 0 1.23.2 1.725.575s.742.934.742 1.655zm265.162 58.943c0-.294.057-.588.168-.88s.283-.56.508-.795a2.59 2.59 0 0 1 .828-.575 2.67 2.67 0 0 1 1.1-.22 3.46 3.46 0 0 1 1.303.253c.416.168.77.412 1.064.73.25.293.44.644.576 1.048a4.01 4.01 0 0 1 .203 1.286c0 .855-.152 1.646-.457 2.367s-.738 1.364-1.303 1.928a5.62 5.62 0 0 1-.848.693 7.12 7.12 0 0 1-.895.54l-.73.355-.37.17-1.354-1.996c.248-.1.523-.2.828-.355a4.58 4.58 0 0 0 .863-.54c.27-.213.496-.47.676-.762s.283-.63.305-1.014c-.654 0-1.23-.192-1.725-.576s-.74-.936-.74-1.656zm-7.867 0c0-.294.057-.588.17-.88a2.38 2.38 0 0 1 .506-.795c.227-.237.504-.43.83-.575a2.68 2.68 0 0 1 1.1-.22 3.46 3.46 0 0 1 1.303.253 2.94 2.94 0 0 1 1.064.729 3.13 3.13 0 0 1 .574 1.048 3.99 3.99 0 0 1 .203 1.286 6.02 6.02 0 0 1-.457 2.367 5.99 5.99 0 0 1-1.301 1.928c-.248.248-.53.48-.846.693l-.896.54-.73.355-.37.17-1.355-1.996a9.07 9.07 0 0 0 .83-.355c.305-.146.592-.327.86-.54a2.99 2.99 0 0 0 .678-.762c.182-.292.28-.63.305-1.014a2.75 2.75 0 0 1-1.727-.576c-.497-.384-.742-.936-.742-1.656z" fill="#fff"/></svg>