<svg xmlns="http://www.w3.org/2000/svg" width="460" height="80" viewBox="0 0 459.754 79.805" fill="#fff"><path d="M44.466 21.738c-3.572-2.98-8.14-4.963-12.902-4.963-3.572 0-8.338 2.084-8.338 6.253 0 4.368 5.26 6.055 8.636 7.146l4.964 1.5C47.248 34.74 55.287 40 55.287 52.1c0 7.445-1.787 15.088-7.742 20.15-5.855 4.964-13.697 7.048-21.24 7.048-9.43 0-18.66-3.177-26.305-8.537l8.338-15.683c4.865 4.27 10.62 7.742 17.27 7.742 4.566 0 9.43-2.283 9.43-7.545 0-5.46-7.643-7.345-11.812-8.535C11.02 43.274 2.978 40.1 2.978 25.607 2.978 10.42 13.796.495 28.785.495c7.543 0 16.775 2.382 23.426 6.154l-7.745 15.1zM91.83 18.96v12.506h21.937v16.48H91.83v12.9h23.127v16.48h-42.58V2.483h42.582V18.96H91.83zm37.587-16.478h27.594c20.844 0 38.016 16.377 38.016 37.42s-17.27 37.42-38.016 37.42h-27.594V2.482zm19.455 58.364h4.367c11.612 0 21.54-6.352 21.54-20.942 0-13.4-8.834-20.943-21.34-20.943h-4.565v41.885zm138-22.333c0 24.22-17.37 41.292-41.394 41.292s-41.4-17.07-41.4-41.292C204.1 15.88 223.94 0 245.48 0s41.394 15.88 41.394 38.513zm-62.534.1c0 12.905 9.53 22.333 21.14 22.333s21.144-9.43 21.144-22.333c0-10.323-9.526-19.752-21.144-19.752s-21.14 9.43-21.14 19.752zm72.9-36.13h19.454l35.636 45.757h.196V2.482h19.453v74.84h-19.453L316.9 31.465h-.197V77.32H297.24V2.482zM407.345 64.32l-5.16 13.002H381.54l28.785-74.84h21.242l28.188 74.84H439l-4.862-13.002h-26.802zm13.6-38.7h-.2l-8.04 23.824h16.178l-7.94-23.824z"/></svg>