<svg version="1.1" id="Layer_1" xmlns="http://www.w3.org/2000/svg" x="0" y="0" viewBox="0 0 256 40" xml:space="preserve"><style>.st0{fill:#00519c}</style><path class="st0" d="M86.9 14.8c3.4 0 5.7-1.7 5.7-4.6 0-2.7-2-3.7-5.2-4.4-1.9-.4-2.4-.7-2.4-1.4 0-.5.5-.9 1.4-.9 1.2 0 2.6.5 3.9 1.4l1.9-2.7C90.7 1 88.8.3 86.4.3 83 .4 81 2.2 81 4.8c0 2.9 2.3 3.8 5.3 4.4 1.9.4 2.4.8 2.4 1.3 0 .6-.6 1-1.6 1-1.6 0-3.2-.6-4.5-1.7l-2.2 2.6c1.6 1.7 4 2.4 6.5 2.4zm10.4 0c1.4 0 2.4-.5 3.2-1.4v1.1h3.8V8.4c0-1.5-.3-2.6-1.2-3.4-.9-.9-2.2-1.3-4.1-1.3-1.9 0-3.2.3-4.4.8l.8 2.7c1-.4 1.8-.6 3-.6 1.5 0 2.2.6 2.2 1.8v.2c-.6-.2-1.6-.4-2.6-.4-2.5 0-4.2 1.2-4.2 3.4-.2 2.1 1.4 3.2 3.5 3.2zm1.3-2.3c-.8 0-1.3-.4-1.3-1.2 0-.8.6-1.4 1.7-1.4.6 0 1.1.1 1.5.3v.5c0 1.1-.8 1.8-1.9 1.8zm7.6 2.1h3.8V0h-3.8v14.6zm6 0h3.8V8.7c0-1.2.6-1.8 1.5-1.8s1.5.6 1.5 1.8v5.9h3.8V8.7c0-1.2.7-1.8 1.6-1.8s1.5.6 1.5 1.8v5.9h3.8V7.5c0-2.5-1.4-4-3.7-4-1.6 0-2.7.7-3.6 1.8-.6-1.1-1.7-1.8-3.1-1.8-1.5 0-2.5.8-3.2 1.7V3.8h-3.8v10.8zm24.9.3c3.5 0 6-2.6 6-5.7s-2.5-5.7-6-5.7-6 2.6-6 5.7 2.5 5.7 6 5.7zm0-3.3c-1.3 0-2.3-1.1-2.3-2.4 0-1.3.9-2.4 2.3-2.4 1.3 0 2.3 1.1 2.3 2.4 0 1.3-.9 2.4-2.3 2.4zm7.6 3h3.8V8.7c0-1.2.7-1.8 1.6-1.8.9 0 1.5.6 1.5 1.8v5.9h3.8V7.5c0-2.5-1.4-4-3.7-4-1.5 0-2.5.9-3.2 1.8V3.8h-3.8v10.8zm19.8.2c2.6 0 4.8-2.1 4.8-5.7 0-3.5-2.2-5.6-4.8-5.6-1.6 0-2.5.8-3.3 1.7V0h-3.8v14.6h3.8v-1.3c.7.8 1.6 1.5 3.3 1.5zm-1.2-3.1c-1.2 0-2.2-1-2.2-2.5s1-2.5 2.2-2.5c1.2 0 2.2 1 2.2 2.4 0 1.6-1 2.6-2.2 2.6zm12.9 3.2c2.2 0 3.7-.9 4.7-2.2l-2.1-1.7c-.8.8-1.5 1.1-2.4 1.1-1.2 0-2-.6-2.3-1.8h7.2v-.8c0-3.2-1.7-5.9-5.5-5.9-3.2 0-5.5 2.5-5.5 5.7.1 3.3 2.5 5.6 5.9 5.6zM174 8.3c.2-1.2.9-2 1.9-2 1 0 1.7.8 1.9 2H174zm9.1 6.3h3.8V0h-3.8v14.6zm6 0h3.8V0h-3.8v14.6zm6 0h3.8V3.8h-3.8v10.8zM195 2.8h4V0h-4v2.8zm11.3 12.1c2.2 0 3.7-.9 4.7-2.2l-2.1-1.7c-.8.8-1.5 1.1-2.4 1.1-1.2 0-2-.6-2.3-1.8h7.2v-.8c0-3.2-1.7-5.9-5.5-5.9-3.2 0-5.5 2.5-5.5 5.7.1 3.3 2.5 5.6 5.9 5.6zm-2.2-6.6c.2-1.2.9-2 1.9-2 1 0 1.7.8 1.9 2h-3.8zm13.3 6.5c2.6 0 4.4-1.2 4.4-3.6 0-2.1-1.7-2.9-3.8-3.5-1.1-.3-1.8-.5-1.8-1 0-.3.3-.6.9-.6.9 0 2.1.4 3.2 1l1.3-2.4c-1.2-.8-2.9-1.3-4.5-1.3-2.5 0-4.3 1.3-4.3 3.6 0 2.2 1.7 2.9 3.8 3.5 1.1.3 1.7.5 1.7.9s-.3.6-1 .6c-1.1 0-2.5-.4-3.7-1.2l-1.4 2.3c1.6 1.2 3.4 1.7 5.2 1.7zm10.6-.2h4.1l1-2.5h5.4l1 2.5h4.2l-6-14.1H234l-6 14.1zm6.2-5.5l1.6-4 1.6 4h-3.2zm16.1 5.7c3.4 0 5.7-1.7 5.7-4.6 0-2.7-2-3.7-5.2-4.4-1.9-.4-2.4-.7-2.4-1.4 0-.5.5-.9 1.4-.9 1.2 0 2.6.5 3.9 1.4l1.9-2.7C254.1 1 252.2.3 249.8.3c-3.4 0-5.4 1.9-5.4 4.5 0 2.9 2.3 3.8 5.3 4.4 1.9.4 2.4.8 2.4 1.3 0 .6-.6 1-1.6 1-1.6 0-3.2-.6-4.5-1.7l-2.2 2.6c1.7 1.7 4.1 2.4 6.5 2.4zm-167.2 13h-3.2v-1.5h8.3v1.5H85V36h-1.8v-8.2zm7.7 1.8c.5-.8 1.4-1.2 2.7-1.2v1.7h-.4c-.7 0-1.2.2-1.6.6-.4.4-.6 1-.6 1.7V36h-1.7v-7.5h1.7v1.1zm7.5 6.5c-.8 0-1.4-.2-2-.5-.6-.3-1.1-.8-1.4-1.4-.3-.6-.5-1.3-.5-2s.2-1.4.5-2c.3-.6.8-1 1.4-1.4.6-.3 1.3-.5 2-.5.8 0 1.5.2 2.1.5.6.3 1.1.8 1.4 1.4.3.6.5 1.2.5 2 0 .7-.2 1.4-.5 2-.3.6-.8 1-1.4 1.4-.7.4-1.4.5-2.1.5zm0-1.5c.6 0 1.2-.2 1.6-.6s.6-1 .6-1.7-.2-1.3-.6-1.7c-.4-.4-1-.6-1.6-.6-.6 0-1.2.2-1.6.6-.4.4-.6 1-.6 1.7s.2 1.3.6 1.7c.4.4.9.6 1.6.6zm12.9-6V36h-1.7v-1c-.3.3-.6.6-1 .8-.4.2-.9.3-1.4.3-1 0-1.8-.3-2.4-.8-.6-.6-.9-1.4-.9-2.5v-4.3h1.8v4c0 .7.1 1.2.4 1.5.3.3.7.5 1.3.5.6 0 1.1-.2 1.5-.6.4-.4.6-1 .6-1.7v-3.8h1.8zm6.8 7c-.2.2-.5.3-.8.4-.3.1-.6.1-.9.1-.8 0-1.5-.2-1.9-.6-.4-.4-.7-1.1-.7-1.9V30h-1.2v-1.4h1.2v-1.7h1.8v1.7h2V30h-2v3.6c0 .4.1.6.3.8.2.2.4.3.8.3s.7-.1 1-.3l.4 1.2zm5.3-7h1.8V36h-1.8v-7.4zm.9-1.3c-.3 0-.6-.1-.8-.3-.2-.2-.3-.5-.3-.8 0-.3.1-.5.3-.7.2-.2.5-.3.8-.3.3 0 .6.1.8.3.2.2.3.4.3.7 0 .3-.1.6-.3.8-.3.2-.5.3-.8.3zm5.4 8.8c-.6 0-1.2-.1-1.8-.2-.6-.2-1-.4-1.4-.6l.7-1.3c.3.2.7.4 1.2.5.5.1.9.2 1.4.2 1 0 1.6-.3 1.6-.8 0-.3-.1-.4-.4-.5-.3-.1-.7-.2-1.3-.3-.6-.1-1.1-.2-1.5-.3-.4-.1-.7-.3-1-.6-.3-.3-.4-.7-.4-1.3 0-.7.3-1.3.9-1.7.6-.4 1.4-.6 2.4-.6.5 0 1 .1 1.5.2s.9.3 1.3.5l-.7 1.3c-.6-.4-1.3-.6-2.1-.6-.5 0-.9.1-1.2.2-.3.1-.4.4-.4.6 0 .3.1.5.4.6.3.1.7.2 1.3.3.6.1 1.1.2 1.5.3.4.1.7.3 1 .6.3.3.4.7.4 1.2 0 .7-.3 1.3-.9 1.7-.6.4-1.4.6-2.5.6zm13.3-.5c-.2.2-.5.3-.8.4-.3.1-.6.1-.9.1-.8 0-1.5-.2-1.9-.6-.4-.4-.7-1.1-.7-1.9V30h-1.2v-1.4h1.2v-1.7h1.8v1.7h2V30h-2v3.6c0 .4.1.6.3.8.2.2.4.3.8.3s.7-.1 1-.3l.4 1.2zm5.7-7.1c.9 0 1.7.3 2.3.8.6.6.9 1.4.9 2.5V36H150v-4c0-.7-.2-1.1-.5-1.5-.3-.3-.7-.5-1.3-.5-.6 0-1.2.2-1.5.6-.4.4-.6.9-.6 1.7V36h-1.8V25.6h1.8v3.8c.3-.3.6-.5 1.1-.7.4-.1.8-.2 1.4-.2zm12.4 3.8v.5h-5.9c.1.6.4 1 .8 1.3.4.3 1 .5 1.6.5.8 0 1.5-.3 2-.8l.9 1.1c-.3.4-.8.7-1.3.9-.5.2-1.1.3-1.7.3-.8 0-1.5-.2-2.2-.5-.6-.3-1.1-.8-1.5-1.4-.3-.6-.5-1.3-.5-2s.2-1.4.5-2c.3-.6.8-1 1.4-1.4.6-.3 1.3-.5 2-.5s1.4.2 1.9.5c.6.3 1 .8 1.3 1.4.5.7.7 1.4.7 2.1zm-3.8-2.4c-.6 0-1 .2-1.4.5-.4.3-.6.8-.7 1.3h4.2c-.1-.5-.3-1-.7-1.3-.3-.4-.8-.5-1.4-.5zm13.6-1.4c.9 0 1.7.3 2.3.8.6.6.9 1.4.9 2.5V36h-1.8v-4c0-.7-.2-1.1-.5-1.5-.3-.3-.7-.5-1.3-.5-.6 0-1.2.2-1.5.6-.4.4-.6.9-.6 1.7V36h-1.8v-7.5h1.7v1c.3-.3.7-.6 1.1-.8.5-.1 1-.2 1.5-.2zm12.4 3.8v.5h-5.9c.1.6.4 1 .8 1.3.4.3 1 .5 1.6.5.8 0 1.5-.3 2-.8l.9 1.1c-.3.4-.8.7-1.3.9-.5.2-1.1.3-1.7.3-.8 0-1.5-.2-2.2-.5-.6-.3-1.1-.8-1.5-1.4-.3-.6-.5-1.3-.5-2s.2-1.4.5-2c.3-.6.8-1 1.4-1.4.6-.3 1.3-.5 2-.5s1.4.2 1.9.5c.6.3 1 .8 1.3 1.4.6.7.7 1.4.7 2.1zm-3.7-2.4c-.6 0-1 .2-1.4.5-.4.3-.6.8-.7 1.3h4.2c-.1-.5-.3-1-.7-1.3-.4-.4-.9-.5-1.4-.5zm16.9-1.3l-2.8 7.5H192l-1.9-5.2-2 5.2h-1.7l-2.7-7.5h1.7l2 5.5 2.1-5.5h1.5l2 5.5 2-5.5h1.4zm7.4 7.5c-.6 0-1.2-.1-1.8-.2-.6-.2-1-.4-1.4-.6l.7-1.3c.3.2.7.4 1.2.5.5.1.9.2 1.4.2 1 0 1.6-.3 1.6-.8 0-.3-.1-.4-.4-.5-.3-.1-.7-.2-1.3-.3-.6-.1-1.1-.2-1.5-.3-.4-.1-.7-.3-1-.6-.3-.3-.4-.7-.4-1.3 0-.7.3-1.3.9-1.7.6-.4 1.4-.6 2.4-.6.5 0 1 .1 1.5.2s.9.3 1.3.5l-.7 1.3c-.6-.4-1.3-.6-2.1-.6-.5 0-.9.1-1.2.2-.3.1-.4.4-.4.6 0 .3.1.5.4.6.3.1.7.2 1.3.3.6.1 1.1.2 1.5.3.4.1.7.3 1 .6.3.3.4.7.4 1.2 0 .7-.3 1.3-.9 1.7-.6.4-1.4.6-2.5.6zm7.8-7.6c1.1 0 1.9.3 2.5.8.6.5.9 1.3.9 2.4V36h-1.7v-.9c-.2.3-.5.6-.9.8-.4.2-.9.3-1.4.3-.6 0-1-.1-1.5-.3-.4-.2-.7-.5-1-.8-.2-.3-.3-.7-.3-1.2 0-.7.2-1.2.7-1.6.5-.4 1.3-.6 2.4-.6h1.9v-.1c0-.5-.2-.9-.5-1.2-.3-.3-.8-.4-1.4-.4-.4 0-.8.1-1.2.2-.4.1-.7.3-1 .5l-.7-1.3c.4-.3.9-.5 1.4-.7s1.2-.2 1.8-.2zm-.3 6.4c.4 0 .8-.1 1.2-.3.3-.2.6-.5.7-.9v-.9h-1.8c-1 0-1.5.3-1.5 1 0 .3.1.6.4.8.2.2.6.3 1 .3zm5.9-9.3h1.8V36h-1.8V25.6zm13.5 2.9c.9 0 1.7.3 2.2.8.6.5.8 1.4.8 2.5V36H232v-4c0-.7-.1-1.1-.4-1.5-.3-.3-.7-.5-1.2-.5-.6 0-1.1.2-1.4.6-.4.4-.5.9-.5 1.7V36h-1.8v-4c0-.7-.1-1.1-.4-1.5-.3-.3-.7-.5-1.2-.5-.6 0-1.1.2-1.4.6-.3.4-.5.9-.5 1.7V36h-1.8v-7.5h1.7v1c.3-.3.6-.6 1-.8.4-.2.9-.3 1.4-.3.6 0 1.1.1 1.5.3.4.2.8.5 1 .9.3-.4.7-.7 1.2-.9.4-.1.9-.2 1.5-.2zm8.7 7.6c-.8 0-1.4-.2-2-.5-.6-.3-1.1-.8-1.4-1.4-.3-.6-.5-1.3-.5-2s.2-1.4.5-2c.3-.6.8-1 1.4-1.4.6-.3 1.3-.5 2-.5.8 0 1.5.2 2.1.5.6.3 1.1.8 1.4 1.4.3.6.5 1.2.5 2 0 .7-.2 1.4-.5 2-.3.6-.8 1-1.4 1.4-.6.4-1.3.5-2.1.5zm0-1.5c.6 0 1.2-.2 1.6-.6s.6-1 .6-1.7-.2-1.3-.6-1.7c-.4-.4-1-.6-1.6-.6-.6 0-1.2.2-1.6.6-.4.4-.6 1-.6 1.7s.2 1.3.6 1.7c.5.4 1 .6 1.6.6zm9.9-6.1c.9 0 1.7.3 2.3.8.6.6.9 1.4.9 2.5V36h-1.8v-4c0-.7-.2-1.1-.5-1.5-.3-.3-.7-.5-1.3-.5-.6 0-1.2.2-1.5.6-.4.4-.6.9-.6 1.7V36H245v-7.5h1.7v1c.3-.3.7-.6 1.1-.8s1-.2 1.5-.2zM0 38.2c0 1 .9 1.8 2 1.8s2-.8 2-1.8V37c0-4.9 1.3-9.5 3.6-13.6 6.8 8.1 17.2 13 28.7 13 11.2 0 21.9-4.8 28.8-13.3l1.6-1.9c.5-.6.5-1.5 0-2.2L65 17C58.3 8.6 47.6 3.6 36.2 3.6c-11.5 0-21.9 4.9-28.7 13-2.3-4-3.6-8.7-3.6-13.6V1.8C3.9.8 3 0 2 0 .9 0 0 .8 0 1.8V3c0 6.1 1.8 11.9 5.1 17C1.8 25.1 0 30.9 0 37v1.2zm61.9-19l.7.8-.7.8c-4.5 5.6-11 9.4-18.1 11-2.7-3.4-4.2-7.6-4.2-11.9s1.5-8.5 4.2-11.9c7.1 1.7 13.6 5.6 18.1 11.2zM36.2 7.3c1.1 0 2.2.1 3.3.2-2.5 3.7-3.9 8.1-3.9 12.6s1.4 8.8 3.9 12.6c-1.1.1-2.2.2-3.3.2-11 0-20.7-5-26.5-12.7 5.9-7.9 15.6-12.9 26.5-12.9z"/><path class="st0" d="M43.6 20.1c0 3 2.6 5.4 5.9 5.4s5.9-2.4 5.9-5.4-2.6-5.4-5.9-5.4-5.9 2.5-5.9 5.4zm5.9-1.8c1.1 0 2 .8 2 1.8s-.9 1.8-2 1.8-2-.8-2-1.8.9-1.8 2-1.8z"/></svg>