<svg version="1.1" id="Layer_1" xmlns="http://www.w3.org/2000/svg" x="0" y="0" viewBox="0 0 246 140" xml:space="preserve"><style>.st0{fill:#00519c}</style><path class="st0" d="M190.9 36.7l-3.1-3.7C174.2 16.6 153 7 130.4 7c-22.8 0-43.5 9.5-57.1 25.2-4.6-7.9-7.2-16.8-7.2-26.3V3.5c0-1.9-1.7-3.5-3.9-3.5s-3.9 1.6-3.9 3.5v2.3c0 11.7 3.5 23 10.1 32.7-6.5 9.9-10.1 21-10.1 32.7v2.4c0 1.9 1.8 3.5 4 3.5s3.9-1.6 3.9-3.5v-2.3c0-9.5 2.6-18.4 7.2-26.3 13.6 15.6 34.2 25.2 57.1 25.2 22.3 0 43.5-9.4 57.2-25.8l3.1-3.7c1.1-1.1 1.1-2.8.1-4zm-60.5 26.4c-21.8 0-41.1-9.8-52.7-24.6 11.6-14.7 31-24.5 52.7-24.5 2.2 0 4.3.1 6.4.3-5 7.3-7.8 15.6-7.8 24.3s2.7 17 7.8 24.3c-2 .1-4.2.2-6.4.2zm51-22.8c-9 10.7-21.9 18.2-36.1 21.4-5.4-6.6-8.5-14.7-8.5-23s3-16.3 8.5-23c14.3 3 27.2 10.6 36.1 21.3l1.4 1.6-1.4 1.7z"/><path class="st0" d="M142.4 39c0 5.8 5.2 10.5 11.6 10.5 6.4 0 11.6-4.7 11.6-10.5s-5.2-10.5-11.6-10.5c-6.4 0-11.6 4.7-11.6 10.5zm11.6-3.6c2.1 0 3.9 1.6 3.9 3.5s-1.7 3.5-3.9 3.5c-2.1 0-3.9-1.6-3.9-3.5.2-1.8 1.8-3.5 3.9-3.5zM9.2 113c4.8 0 7.9-2.4 7.9-6.4 0-3.7-2.8-5.2-7.3-6.2-2.7-.6-3.4-1-3.4-1.9 0-.8.6-1.3 2-1.3 1.7 0 3.7.7 5.5 1.9l2.7-3.8c-2.1-1.7-4.7-2.6-8.1-2.6C3.8 92.7.9 95.3.9 99c0 4.1 3.2 5.3 7.4 6.2 2.7.6 3.3 1.1 3.3 1.9 0 .9-.8 1.4-2.2 1.4-2.3 0-4.4-.8-6.4-2.4l-3 3.6c2.4 2.2 5.8 3.3 9.2 3.3zm14.6 0c2 0 3.4-.8 4.5-1.9v1.6h5.3V104c0-2.1-.5-3.7-1.6-4.8-1.2-1.2-3.1-1.8-5.8-1.8-2.6 0-4.4.5-6.1 1.2l1.1 3.8c1.3-.5 2.6-.8 4.2-.8 2 0 3 .9 3 2.5v.3c-.9-.3-2.2-.6-3.6-.6-3.6 0-5.9 1.6-5.9 4.8-.1 2.7 2.1 4.4 4.9 4.4zm1.9-3.3c-1.1 0-1.9-.6-1.9-1.7 0-1.2.9-1.9 2.4-1.9.8 0 1.5.2 2.1.4v.7c0 1.5-1.1 2.5-2.6 2.5zm10.6 2.9h5.3V92.2h-5.3v20.4zm8.3 0h5.3v-8.2c0-1.7.9-2.5 2.2-2.5s2.1.9 2.1 2.5v8.2h5.3v-8.2c0-1.7.9-2.5 2.2-2.5s2.1.9 2.1 2.5v8.2h5.3v-9.9c0-3.5-2-5.5-5.2-5.5-2.2 0-3.8 1-5.1 2.5-.8-1.6-2.4-2.5-4.4-2.5-2.1 0-3.5 1.1-4.5 2.4v-2.1h-5.3v15.1zm35 .4c4.9 0 8.4-3.6 8.4-7.9 0-4.4-3.5-7.9-8.3-7.9s-8.4 3.6-8.4 7.9c-.2 4.4 3.4 7.9 8.3 7.9zm0-4.5c-1.9 0-3.2-1.6-3.2-3.4 0-1.9 1.2-3.4 3.2-3.4 1.9 0 3.2 1.6 3.2 3.4-.1 1.9-1.3 3.4-3.2 3.4zm10.6 4.1h5.3v-8.2c0-1.7 1-2.5 2.2-2.5 1.3 0 2.1.9 2.1 2.5v8.2h5.3v-9.9c0-3.4-1.9-5.6-5.2-5.6-2.2 0-3.6 1.2-4.5 2.5v-2.1h-5.3l.1 15.1zm27.7.4c3.6 0 6.7-3 6.7-7.9 0-5-3.1-7.9-6.7-7.9-2.3 0-3.6 1.1-4.6 2.4v-7.3H108v20.4h5.3v-1.9c.9 1.2 2.2 2.2 4.6 2.2zm-1.6-4.5c-1.7 0-3.1-1.4-3.1-3.4s1.4-3.5 3.1-3.5 3.1 1.4 3.1 3.4c0 2.1-1.4 3.5-3.1 3.5zm18.1 4.5c3 0 5.1-1.2 6.6-3.1l-2.9-2.4c-1.1 1.1-2.1 1.5-3.4 1.5-1.7 0-2.9-.8-3.3-2.5h10.1v-1.1c0-4.5-2.4-8.3-7.6-8.3-4.5 0-7.6 3.5-7.6 7.9-.1 4.9 3.3 8 8.1 8zm-3.1-9.2c.3-1.7 1.2-2.7 2.6-2.7 1.5 0 2.4 1.1 2.6 2.7h-5.2zm12.6 8.8h5.3V92.2h-5.3v20.4zm8.4 0h5.3V92.2h-5.3v20.4zm8.5 0h5.3V97.5h-5.3v15.1zm-.2-16.5h5.5v-3.9h-5.5v3.9zm15.9 16.9c3 0 5.1-1.2 6.6-3.1l-2.9-2.4c-1.1 1.1-2.1 1.5-3.4 1.5-1.7 0-2.9-.8-3.3-2.5h10.1v-1.1c0-4.5-2.4-8.3-7.6-8.3-4.5 0-7.6 3.5-7.6 7.9-.1 4.9 3.3 8 8.1 8zm-3-9.2c.3-1.7 1.2-2.7 2.6-2.7 1.5 0 2.4 1.1 2.6 2.7h-5.2zM192 113c3.7 0 6.2-1.7 6.2-5.1 0-3-2.4-4-5.4-4.9-1.6-.5-2.5-.8-2.5-1.3s.4-.8 1.2-.8c1.2 0 2.9.5 4.5 1.4l1.8-3.4c-1.7-1.1-4-1.8-6.2-1.8-3.5 0-6.1 1.8-6.1 5 0 3.1 2.4 4.1 5.4 4.9 1.6.4 2.4.7 2.4 1.3 0 .6-.4.9-1.3.9-1.6 0-3.5-.6-5.2-1.7l-2 3.2c2.1 1.6 4.7 2.3 7.2 2.3zm14.9-.4h5.7l1.4-3.5h7.6l1.4 3.5h5.8l-8.3-19.7h-5.2c-.1 0-8.4 19.7-8.4 19.7zm8.7-7.7l2.2-5.6 2.2 5.6h-4.4zm22.5 8.1c4.8 0 7.9-2.4 7.9-6.4 0-3.7-2.8-5.2-7.3-6.2-2.7-.6-3.4-1-3.4-1.9 0-.8.6-1.3 2-1.3 1.7 0 3.7.7 5.5 1.9l2.7-3.8c-2.1-1.7-4.7-2.6-8.1-2.6-4.7 0-7.6 2.6-7.6 6.3 0 4.1 3.2 5.3 7.4 6.2 2.7.6 3.3 1.1 3.3 1.9 0 .9-.8 1.4-2.2 1.4-2.3 0-4.4-.8-6.4-2.4l-3 3.6c2.5 2.2 5.8 3.3 9.2 3.3zm-210 17.4h-3.7v-1.8h9.5v1.8h-3.7v9.4h-2.1v-9.4zm8.8 2.2c.6-.9 1.6-1.3 3-1.3v1.9h-.5c-.8 0-1.4.2-1.8.7-.4.4-.7 1.1-.7 2v4.1h-2v-8.5h1.9v1.1zm8.5 7.4c-.9 0-1.6-.2-2.3-.6-.7-.4-1.2-.9-1.6-1.6-.4-.7-.6-1.4-.6-2.3 0-.8.2-1.6.6-2.3.4-.7.9-1.2 1.6-1.6.7-.4 1.5-.6 2.3-.6.9 0 1.7.2 2.4.6.7.4 1.2.9 1.6 1.6.4.7.6 1.4.6 2.3 0 .8-.2 1.6-.6 2.3-.4.7-.9 1.2-1.6 1.6-.7.4-1.5.6-2.4.6zm0-1.7c.7 0 1.3-.2 1.8-.7.5-.5.7-1.1.7-1.9 0-.8-.2-1.4-.7-1.9-.5-.5-1.1-.7-1.8-.7s-1.3.2-1.8.7c-.5.5-.7 1.1-.7 1.9 0 .8.2 1.4.7 1.9.5.4 1.1.7 1.8.7zm14.8-7v8.5h-1.9v-1.1c-.3.4-.7.7-1.2.9-.5.2-1 .3-1.6.3-1.1 0-2-.3-2.7-.9-.7-.6-1-1.6-1-2.8v-4.9h2v4.6c0 .8.2 1.3.5 1.7.4.4.8.6 1.5.6s1.3-.2 1.7-.7c.4-.4.6-1.1.6-1.9v-4.3h2.1zm7.7 8.1c-.2.2-.5.3-.9.4-.3.1-.7.1-1.1.1-.9 0-1.7-.2-2.2-.7-.5-.5-.8-1.2-.8-2.1V133h-1.4v-1.6h1.4v-2h2v2h2.3v1.6h-2.3v4.1c0 .4.1.7.3 1 .2.2.5.3.9.3s.8-.1 1.1-.4l.7 1.4zm6.1-8.1h2v8.5h-2v-8.5zm1-1.4c-.4 0-.7-.1-.9-.3-.2-.2-.4-.5-.4-.9 0-.3.1-.6.4-.8.2-.2.5-.4.9-.4s.7.1.9.3c.2.2.4.5.4.8 0 .4-.1.7-.4.9-.2.3-.5.4-.9.4zm6.3 10.1c-.7 0-1.4-.1-2-.3-.7-.2-1.2-.4-1.6-.7l.8-1.5c.4.3.8.5 1.4.6.5.1 1.1.2 1.6.2 1.2 0 1.8-.3 1.8-.9 0-.3-.2-.5-.5-.6-.3-.1-.8-.2-1.5-.3-.7-.1-1.3-.2-1.7-.4-.4-.1-.8-.4-1.2-.7-.3-.4-.5-.8-.5-1.5 0-.8.3-1.5 1-1.9.7-.5 1.6-.7 2.8-.7.6 0 1.2.1 1.8.2.6.1 1.1.3 1.4.5l-.8 1.5c-.7-.4-1.5-.6-2.4-.6-.6 0-1 .1-1.3.3-.3.2-.4.4-.4.7 0 .3.2.5.5.7.3.1.8.3 1.5.4.7.1 1.2.2 1.7.4s.8.4 1.1.7c.3.3.5.8.5 1.4 0 .8-.3 1.4-1 1.9-.9.4-1.8.6-3 .6zm15.1-.6c-.2.2-.5.3-.9.4-.3.1-.7.1-1.1.1-.9 0-1.7-.2-2.2-.7-.5-.5-.8-1.2-.8-2.1V133H90v-1.6h1.4v-2h2v2h2.3v1.6h-2.3v4.1c0 .4.1.7.3 1 .2.2.5.3.9.3s.8-.1 1.1-.4l.7 1.4zm6.5-8.2c1.1 0 1.9.3 2.6.9.7.6 1 1.6 1 2.8v4.9h-2v-4.6c0-.7-.2-1.3-.5-1.7-.4-.4-.9-.6-1.5-.6-.7 0-1.3.2-1.7.7-.4.4-.6 1.1-.6 1.9v4.3h-2V128h2v4.3c.3-.4.7-.6 1.2-.8.4-.2.9-.3 1.5-.3zm14.2 4.5v.6h-6.7c.1.6.4 1.1.9 1.5.5.4 1.1.5 1.9.5.9 0 1.7-.3 2.3-.9l1.1 1.2c-.4.5-.9.8-1.5 1-.6.2-1.2.4-2 .4-.9 0-1.8-.2-2.5-.6-.7-.4-1.3-.9-1.7-1.6-.4-.7-.6-1.4-.6-2.3 0-.8.2-1.6.6-2.2.4-.7.9-1.2 1.6-1.6.7-.4 1.4-.6 2.3-.6.8 0 1.6.2 2.2.6.7.4 1.2.9 1.5 1.6.4.7.6 1.5.6 2.4zm-4.3-2.9c-.6 0-1.2.2-1.6.6-.4.4-.7.9-.8 1.5h4.8c-.1-.6-.3-1.1-.8-1.5-.4-.4-.9-.6-1.6-.6zm15.5-1.6c1.1 0 1.9.3 2.6.9s1 1.6 1 2.8v4.9h-2v-4.6c0-.7-.2-1.3-.5-1.7-.4-.4-.9-.6-1.5-.6-.7 0-1.3.2-1.7.7-.4.4-.6 1.1-.6 1.9v4.3h-2v-8.5h1.9v1.1c.3-.4.7-.7 1.2-.9.4-.2 1-.3 1.6-.3zm14.2 4.5v.6h-6.7c.1.6.4 1.1.9 1.5.5.4 1.1.5 1.9.5.9 0 1.7-.3 2.3-.9l1.1 1.2c-.4.5-.9.8-1.5 1-.6.2-1.2.4-2 .4-.9 0-1.8-.2-2.5-.6-.7-.4-1.3-.9-1.7-1.6-.4-.7-.6-1.4-.6-2.3 0-.8.2-1.6.6-2.2.4-.7.9-1.2 1.6-1.6.7-.4 1.4-.6 2.3-.6.8 0 1.6.2 2.2.6.7.4 1.2.9 1.5 1.6.4.7.6 1.5.6 2.4zm-4.3-2.9c-.6 0-1.2.2-1.6.6-.4.4-.7.9-.8 1.5h4.8c-.1-.6-.3-1.1-.8-1.5-.4-.4-.9-.6-1.6-.6zm19.4-1.5l-3.2 8.5h-1.9l-2.2-5.9-2.2 5.9h-1.9l-3.1-8.5h1.9l2.3 6.3 2.4-6.3h1.7l2.3 6.3 2.3-6.3h1.6zm8.5 8.7c-.7 0-1.4-.1-2-.3-.7-.2-1.2-.4-1.6-.7l.8-1.5c.4.3.8.5 1.4.6.5.1 1.1.2 1.6.2 1.2 0 1.8-.3 1.8-.9 0-.3-.2-.5-.5-.6-.3-.1-.8-.2-1.5-.3-.7-.1-1.3-.2-1.7-.4-.4-.1-.8-.4-1.2-.7-.3-.4-.5-.8-.5-1.5 0-.8.3-1.5 1-1.9.7-.5 1.6-.7 2.8-.7.6 0 1.2.1 1.8.2.6.1 1.1.3 1.4.5l-.8 1.5c-.7-.4-1.5-.6-2.4-.6-.6 0-1 .1-1.3.3-.3.2-.4.4-.4.7 0 .3.2.5.5.7.3.1.8.3 1.5.4.7.1 1.2.2 1.7.4.4.1.8.4 1.1.7.3.3.5.8.5 1.4 0 .8-.3 1.4-1 1.9s-1.8.6-3 .6zm8.8-8.8c1.3 0 2.2.3 2.9.9.7.6 1 1.5 1 2.7v5h-1.9v-1c-.2.4-.6.7-1.1.9-.4.2-1 .3-1.6.3s-1.2-.1-1.7-.3c-.5-.2-.9-.5-1.1-.9-.3-.4-.4-.8-.4-1.3 0-.8.3-1.4.8-1.8.6-.5 1.5-.7 2.7-.7h2.2v-.1c0-.6-.2-1.1-.5-1.4-.4-.3-.9-.5-1.6-.5-.5 0-1 .1-1.4.2-.5.1-.8.4-1.2.6l-.8-1.5c.4-.3 1-.6 1.6-.8.7-.2 1.4-.3 2.1-.3zm-.3 7.3c.5 0 .9-.1 1.3-.3.4-.2.7-.6.8-1v-1h-2.1c-1.2 0-1.7.4-1.7 1.1 0 .4.1.7.4.9.4.2.8.3 1.3.3zm6.8-10.5h2v11.9h-2V128zm15.4 3.2c1.1 0 1.9.3 2.6.9.6.6.9 1.6.9 2.8v4.9h-2v-4.6c0-.7-.2-1.3-.5-1.7-.3-.4-.8-.6-1.4-.6-.7 0-1.2.2-1.6.7-.4.4-.6 1.1-.6 1.9v4.3h-2v-4.6c0-.7-.2-1.3-.5-1.7-.3-.4-.8-.6-1.4-.6-.7 0-1.2.2-1.6.7-.4.4-.6 1.1-.6 1.9v4.3h-2v-8.5h1.9v1.1c.3-.4.7-.7 1.2-.9.5-.2 1-.3 1.6-.3.6 0 1.2.1 1.7.4.5.2.9.6 1.2 1.1.4-.4.8-.8 1.4-1 .4-.3 1-.5 1.7-.5zm10 8.8c-.9 0-1.6-.2-2.3-.6-.7-.4-1.2-.9-1.6-1.6-.4-.7-.6-1.4-.6-2.3 0-.8.2-1.6.6-2.3.4-.7.9-1.2 1.6-1.6.7-.4 1.5-.6 2.3-.6.9 0 1.7.2 2.4.6.7.4 1.2.9 1.6 1.6.4.7.6 1.4.6 2.3 0 .8-.2 1.6-.6 2.3-.4.7-.9 1.2-1.6 1.6-.8.4-1.6.6-2.4.6zm0-1.7c.7 0 1.3-.2 1.8-.7.5-.5.7-1.1.7-1.9 0-.8-.2-1.4-.7-1.9-.5-.5-1.1-.7-1.8-.7s-1.3.2-1.8.7c-.5.5-.7 1.1-.7 1.9 0 .8.2 1.4.7 1.9.4.4 1 .7 1.8.7zm11.3-7.1c1.1 0 1.9.3 2.6.9.7.6 1 1.6 1 2.8v4.9h-2v-4.6c0-.7-.2-1.3-.5-1.7-.4-.4-.9-.6-1.5-.6-.7 0-1.3.2-1.7.7-.4.4-.6 1.1-.6 1.9v4.3h-2v-8.5h1.9v1.1c.3-.4.7-.7 1.2-.9.4-.2.9-.3 1.6-.3z"/></svg>