<svg xmlns="http://www.w3.org/2000/svg" xmlns:xlink="http://www.w3.org/1999/xlink"><symbol id="icon-arrow"><path d="M6.594 7.174l5.16-5.16A.84.84 0 1010.565.826L6 5.39 1.435.826A.84.84 0 00.246 2.014l5.16 5.16a.837.837 0 001.188 0z"/></symbol><symbol id="icon-close" viewBox="0 0 18 18"><path d="M15.8 0L9 6.8 2.2 0 0 2.2 6.8 9 0 15.8 2.2 18 9 11.2l6.8 6.8 2.2-2.2L11.2 9 18 2.2 15.8 0z"/></symbol><symbol id="icon-facebook"><path d="M20.5 41C31.822 41 41 31.822 41 20.5S31.822 0 20.5 0 0 9.178 0 20.5 9.178 41 20.5 41z" fill="#314A7E"/><path d="M25.679 20.5h-3.345v12.084h-5.07V20.5H14.89v-4.316h2.373V13.38c0-1.942.971-5.07 5.071-5.07h3.776v4.207h-2.697c-.431 0-1.079.216-1.079 1.187v2.481h3.884l-.54 4.316z" fill="#F1F2F2"/></symbol><symbol id="icon-lang-chi" viewBox="0 0 32 32"><path d="M16 32c8.8 0 16-7.2 16-16S24.8 0 16 0 0 7.2 0 16s7.2 16 16 16z" fill="#de2910"/><path d="M11.1 12.3L9.3 6.7l-1.8 5.6H1.6l4.8 3.5-1.8 5.5 4.7-3.4 4.7 3.4-1.8-5.5 4.8-3.5zm11.2-4.6l1 1.7.2-2 1.9-.4-1.8-.8.2-1.9-1.3 1.4-1.8-.7 1 1.6-1.3 1.5zm5.1 5.1l.2 2 1-1.8 1.9.4-1.4-1.4.9-1.8-1.7.9-1.4-1.4.3 1.9-1.8.9zm1.7 7.7l1.5-1.2h-1.9l-.7-1.8-.5 1.9h-2l1.6 1.1-.5 1.9 1.5-1.2 1.7 1.1zM23.6 25l.1-2-1.2 1.6-1.9-.7 1.1 1.6-1.2 1.5 1.9-.5 1 1.6.1-1.9 1.9-.5z" fill="#ffde00"/></symbol><symbol id="icon-lang-eng"><path d="M16 32c8.837 0 16-7.163 16-16S24.837 0 16 0 0 7.163 0 16s7.163 16 16 16z" fill="#F0F0F0"/><path d="M3.3 6.3C2 7.9 1.1 9.8.5 11.9h8.3L3.3 6.3zm28.1 5.5c-.6-2-1.5-3.9-2.8-5.6L23 11.8h8.4zM.6 20.2c.6 2 1.5 3.9 2.8 5.6L9 20.2H.6zM25.7 3.3C24.1 2 22.2 1.1 20.1.5v8.3l5.6-5.5zM6.3 28.7c1.6 1.3 3.5 2.2 5.6 2.8v-8.3l-5.6 5.5zM11.8.6c-2 .6-3.9 1.5-5.6 2.8L11.8 9V.6zm8.4 30.8c2-.6 3.9-1.5 5.6-2.8L20.2 23v8.4zm2.9-11.2l5.6 5.6c1.3-1.6 2.2-3.5 2.8-5.6h-8.4z" fill="#0052B4"/><path d="M31.9 13.9H18.1V.1C17.4 0 16.7 0 16 0c-.7 0-1.4 0-2.1.1v13.8H.1C0 14.6 0 15.3 0 16c0 .7 0 1.4.1 2.1h13.8v13.8c.7.1 1.4.1 2.1.1.7 0 1.4 0 2.1-.1V18.1h13.8c.1-.7.1-1.4.1-2.1 0-.7 0-1.4-.1-2.1z" fill="#D80027"/><path d="M20.2 20.2l7.1 7.1c.3-.3.6-.7.9-1l-6.1-6.1h-1.9zm-8.4 0l-7.1 7.1c.3.3.7.6 1 .9l6.1-6.1v-1.9zm0-8.4L4.7 4.7l-1 1 6.1 6.1h2zm8.4 0l7.1-7.1c-.3-.3-.7-.6-1-.9l-6.1 6.1v1.9z" fill="#D80027"/></symbol><symbol id="icon-linkedin"><path d="M20.5 41C31.822 41 41 31.822 41 20.5S31.822 0 20.5 0 0 9.178 0 20.5 9.178 41 20.5 41z" fill="#005983"/><path d="M32.26 22.118v8.2h-4.747v-7.66c0-1.942-.647-3.237-2.373-3.237-1.295 0-2.05.863-2.374 1.726-.108.324-.108.756-.108 1.187v7.984H17.91s.108-12.84 0-14.242h4.748v2.05c.647-.97 1.726-2.374 4.316-2.374 3.02 0 5.287 2.05 5.287 6.366zM12.84 9.171c-1.619 0-2.698 1.079-2.698 2.482 0 1.402 1.079 2.481 2.59 2.481 1.618 0 2.697-1.079 2.697-2.482.108-1.402-.971-2.481-2.59-2.481zm-2.374 21.147h4.747V16.076h-4.747v14.242z" fill="#F1F2F2"/></symbol><symbol id="icon-menu" viewBox="0 0 44 44"><path d="M0 0h44v8H0zm0 36h44v8H0zm0-18h44v8H0z"/></symbol><symbol id="kosher-logo" viewBox="0 0 204 58"><path d="M29 58C13 58 0 45 0 29S13 0 29 0s29 13 29 29-13 29-29 29zm0-55C14.7 3 3 14.7 3 29s11.6 26 26 26 26-11.6 26-26S43.3 3 29 3z"/><path d="M15.8 12.6h6.7v18.7c0 3 .1 4.8.2 5.8.2 1.4 1 2.5 2 3.4 1.1.8 2.5 1.3 4.5 1.3s3.4-.4 4.3-1.2c1-.8 1.6-1.8 1.7-3 .2-1.2.2-3.1.2-5.8V12.6h6.7v18c0 4.1-.2 7-.6 8.8-.4 1.7-1.1 3.1-2 4.3-1 1.2-2.3 2-3.9 2.8-1.7.7-3.7 1.1-6.4 1.1-3.1 0-5.5-.4-7.2-1.1-1.7-.7-2.9-1.7-3.9-3-1-1.2-1.6-2.5-1.9-3.9-.5-1.9-.6-4.8-.6-8.7V12.6zm60.7 18.6l-1.4 1.5V35h-1.7v-9.1h1.7v4.7l4.5-4.7h1.9L77.7 30l4.1 5h-2l-3.3-3.8zm9 3.9c-.7 0-1.3-.2-1.9-.5-.6-.3-1-.7-1.3-1.3-.3-.5-.5-1.2-.5-1.8s.2-1.3.5-1.8.8-1 1.3-1.3c.6-.3 1.2-.5 1.9-.5s1.3.2 1.9.5c.6.3 1 .7 1.3 1.3.3.5.5 1.1.5 1.8s-.2 1.3-.5 1.8-.7 1-1.3 1.3c-.5.3-1.1.5-1.9.5zm0-1.4c.6 0 1.1-.2 1.5-.6s.6-.9.6-1.6c0-.6-.2-1.2-.6-1.6-.4-.4-.9-.6-1.5-.6s-1.1.2-1.5.6c-.4.4-.6.9-.6 1.6 0 .7.2 1.2.6 1.6.5.4.9.6 1.5.6zm7.4 1.4c-.6 0-1.1-.1-1.7-.2-.5-.1-1-.3-1.3-.6l.6-1.2c.3.2.7.4 1.1.5.4.1.9.2 1.3.2 1 0 1.5-.3 1.5-.8 0-.2-.1-.4-.4-.5-.2-.1-.6-.2-1.2-.3-.6-.1-1-.2-1.4-.3-.4-.1-.7-.3-.9-.6-.3-.3-.4-.7-.4-1.2 0-.7.3-1.2.8-1.6.6-.4 1.3-.6 2.2-.6.5 0 1 .1 1.4.2.5.1.9.2 1.2.4l-.6 1.2c-.6-.3-1.3-.5-2-.5-.5 0-.8.1-1.1.2-.2.1-.4.3-.4.6s.1.4.4.6c.3.1.7.2 1.2.3.6.1 1 .2 1.4.3.4.1.7.3.9.6.3.3.4.6.4 1.1 0 .7-.3 1.2-.8 1.6-.4.4-1.2.6-2.2.6zm8.5-7.1c.9 0 1.6.3 2.1.8s.8 1.3.8 2.3v4h-1.6v-3.8c0-.6-.1-1.1-.4-1.4-.3-.3-.7-.5-1.2-.5-.6 0-1.1.2-1.4.5-.3.4-.5.9-.5 1.5V35h-1.6v-9.6h1.6v3.5c.3-.3.6-.5 1-.6.3-.2.7-.3 1.2-.3zm11.6 3.6v.5h-5.4c.1.5.3.9.7 1.2.4.3.9.4 1.5.4.8 0 1.4-.3 1.9-.8l.9 1c-.3.4-.7.7-1.2.8-.5.2-1 .3-1.6.3-.8 0-1.4-.2-2-.5-.6-.3-1-.7-1.4-1.3-.3-.5-.5-1.2-.5-1.8 0-.7.2-1.3.5-1.8s.7-1 1.3-1.3c.5-.3 1.2-.5 1.8-.5.7 0 1.3.2 1.8.5s1 .7 1.2 1.3c.3.6.5 1.3.5 2zm-3.5-2.3c-.5 0-1 .2-1.3.5-.4.3-.6.7-.7 1.2h3.9c-.1-.5-.3-.9-.6-1.2-.4-.4-.8-.5-1.3-.5zm6.6-.2c.5-.7 1.3-1.1 2.5-1.1v1.5h-.4c-.6 0-1.1.2-1.5.6-.4.4-.5.9-.5 1.6V35h-1.6v-6.9h1.5v1zm11.3-1.1c.7 0 1.3.1 1.8.4.5.3 1 .7 1.3 1.2s.5 1.2.5 1.9-.2 1.3-.5 1.9c-.3.5-.7 1-1.3 1.2-.5.3-1.1.4-1.8.4-.9 0-1.7-.3-2.2-.9v3.4h-1.6V28h1.5v1c.3-.3.6-.6 1-.7.4-.2.9-.3 1.3-.3zm-.1 5.7c.6 0 1.1-.2 1.5-.6.4-.4.6-.9.6-1.6 0-.6-.2-1.2-.6-1.6-.4-.4-.9-.6-1.5-.6-.4 0-.7.1-1.1.3-.3.2-.6.4-.7.8s-.3.7-.3 1.1.1.8.3 1.1.4.6.7.8c.3.2.7.3 1.1.3zm11.7-2.1v.5h-5.4c.1.5.3.9.7 1.2.4.3.9.4 1.5.4.8 0 1.4-.3 1.9-.8l.9 1c-.3.4-.7.7-1.2.8s-1 .3-1.6.3c-.8 0-1.4-.2-2-.5-.6-.3-1-.7-1.4-1.3-.3-.5-.5-1.2-.5-1.8 0-.7.2-1.3.5-1.8s.7-1 1.3-1.3c.5-.3 1.2-.5 1.8-.5.7 0 1.3.2 1.8.5s1 .7 1.2 1.3c.4.6.5 1.3.5 2zm-3.5-2.3c-.5 0-1 .2-1.3.5-.4.3-.6.7-.7 1.2h3.9c-.1-.5-.3-.9-.6-1.2-.3-.4-.7-.5-1.3-.5zm6.6-.2c.5-.7 1.3-1.1 2.5-1.1v1.5h-.4c-.6 0-1.1.2-1.5.6-.4.4-.5.9-.5 1.6V35h-1.6v-6.9h1.5v1zm14.3-3.7V35h-1.6v-.9c-.3.3-.6.6-1 .7-.4.2-.8.2-1.3.2-.7 0-1.3-.1-1.8-.4-.5-.3-.9-.7-1.2-1.2-.3-.5-.5-1.2-.5-1.9s.2-1.3.5-1.9c.3-.5.7-1 1.2-1.2.5-.3 1.1-.4 1.8-.4.5 0 .9.1 1.3.2.4.2.7.4 1 .7v-3.6h1.6zm-3.6 8.3c.4 0 .7-.1 1.1-.3.3-.2.6-.4.7-.8.2-.3.3-.7.3-1.1s-.1-.8-.3-1.1c-.2-.3-.4-.6-.7-.8-.3-.2-.7-.3-1.1-.3s-.7.1-1.1.3c-.3.2-.6.4-.7.8s-.3.7-.3 1.1.1.8.3 1.1.4.6.7.8c.3.2.7.3 1.1.3zm12.3-2.1v.5h-5.4c.1.5.3.9.7 1.2.4.3.9.4 1.5.4.8 0 1.4-.3 1.9-.8l.9 1c-.3.4-.7.7-1.2.8-.5.2-1 .3-1.6.3-.8 0-1.4-.2-2-.5-.6-.3-1-.7-1.4-1.3-.3-.5-.5-1.2-.5-1.8 0-.7.2-1.3.5-1.8s.7-1 1.3-1.3c.5-.3 1.2-.5 1.8-.5.7 0 1.3.2 1.8.5s1 .7 1.2 1.3c.3.6.5 1.3.5 2zm-3.5-2.3c-.5 0-1 .2-1.3.5-.4.3-.6.7-.6 1.2h3.9c-.1-.5-.3-.9-.6-1.2-.4-.4-.9-.5-1.4-.5zm13.8-1.3c.9 0 1.6.3 2.1.8s.8 1.3.8 2.3v4h-1.6v-3.8c0-.6-.1-1.1-.4-1.4-.3-.3-.7-.5-1.2-.5s-1 .2-1.3.5c-.3.4-.5.9-.5 1.5V35h-1.6v-3.8c0-.6-.1-1.1-.4-1.4-.3-.3-.7-.5-1.2-.5-.6 0-1 .2-1.3.5-.3.4-.5.9-.5 1.5V35h-1.6v-6.9h1.5v.9c.3-.3.6-.6 1-.7.4-.2.8-.2 1.3-.2s1 .1 1.4.3c.4.2.7.5 1 .9.3-.4.7-.6 1.1-.8.4-.4.9-.5 1.4-.5zm7.6 0c1 0 1.8.2 2.3.7.5.5.8 1.2.8 2.2V35h-1.5v-.8c-.2.3-.5.5-.9.7-.4.2-.8.2-1.3.2s-1-.1-1.4-.3c-.4-.2-.7-.4-.9-.7-.2-.3-.3-.7-.3-1.1 0-.6.2-1.1.7-1.5.5-.4 1.2-.6 2.2-.6h1.8v-.1c0-.5-.1-.9-.4-1.1-.3-.3-.7-.4-1.3-.4-.4 0-.8.1-1.2.2-.4.1-.7.3-.9.5l-.6-1.2c.4-.3.8-.5 1.3-.6.5-.1 1-.2 1.6-.2zm-.2 5.9c.4 0 .8-.1 1.1-.3.3-.2.5-.5.7-.8V32h-1.7c-.9 0-1.4.3-1.4.9 0 .3.1.5.4.7.1.2.5.3.9.3zm9.4-5.9c.9 0 1.6.3 2.1.8s.8 1.3.8 2.3v4h-1.6v-3.8c0-.6-.1-1.1-.4-1.4-.3-.3-.7-.5-1.2-.5-.6 0-1.1.2-1.4.5-.3.4-.5.9-.5 1.5V35h-1.6v-6.9h1.5v.9c.3-.3.6-.6 1-.7.3-.2.8-.3 1.3-.3zm11.8-2.6V35h-1.6v-.9c-.3.3-.6.6-1 .7-.4.2-.8.2-1.3.2-.7 0-1.3-.1-1.8-.4-.5-.3-.9-.7-1.2-1.2-.3-.5-.5-1.2-.5-1.9s.2-1.3.5-1.9c.3-.5.7-1 1.2-1.2.5-.3 1.1-.4 1.8-.4.5 0 .9.1 1.3.2.4.2.7.4 1 .7v-3.6h1.6zm-3.7 8.3c.4 0 .7-.1 1.1-.3.3-.2.6-.4.7-.8.2-.3.3-.7.3-1.1s-.1-.8-.3-1.1c-.2-.3-.4-.6-.7-.8-.3-.2-.7-.3-1.1-.3s-.7.1-1.1.3c-.3.2-.6.4-.7.8-.2.3-.3.7-.3 1.1s.1.8.3 1.1c.2.3.4.6.7.8.4.2.7.3 1.1.3z"/></symbol></svg>