<svg xmlns="http://www.w3.org/2000/svg" viewBox="0 0 189 26"><path fill="#fff" d="M58.45 3.8h-6.89V22h4.16v-5.72h2.73c3.588 0 6.37-2.782 6.37-6.24S62.038 3.8 58.45 3.8zm0 8.58h-2.73V7.7h2.73c1.274 0 2.21 1.014 2.21 2.34 0 1.326-.936 2.34-2.21 2.34zm15.434-3.744c-1.716 0-3.016.624-3.718 1.586V3.8h-3.9V22h3.9v-7.098c0-1.846.988-2.678 2.418-2.678 1.248 0 2.262.754 2.262 2.366V22h3.9v-7.982c0-3.51-2.236-5.382-4.862-5.382zm13.28 13.728c3.822 0 6.89-2.99 6.89-6.864 0-3.874-3.068-6.864-6.89-6.864-3.822 0-6.89 2.99-6.89 6.864 0 3.874 3.068 6.864 6.89 6.864zm0-3.796c-1.69 0-2.99-1.222-2.99-3.068s1.3-3.068 2.99-3.068c1.69 0 2.99 1.222 2.99 3.068s-1.3 3.068-2.99 3.068zm15.96-5.824V9h-2.678V5.36l-3.9 1.17V9h-2.08v3.744h2.08v4.602c0 3.64 1.482 5.174 6.578 4.654v-3.536c-1.716.104-2.678 0-2.678-1.118v-4.602h2.678zm7.694 9.62c3.822 0 6.89-2.99 6.89-6.864 0-3.874-3.068-6.864-6.89-6.864-3.822 0-6.89 2.99-6.89 6.864 0 3.874 3.068 6.864 6.89 6.864zm0-3.796c-1.69 0-2.99-1.222-2.99-3.068s1.3-3.068 2.99-3.068c1.69 0 2.99 1.222 2.99 3.068s-1.3 3.068-2.99 3.068zm26.744-6.708h-9.126v3.64h4.862c-.65 1.742-2.236 2.808-4.654 2.808-3.536 0-5.72-2.262-5.72-5.356 0-3.198 2.288-5.46 5.356-5.46 2.054 0 3.692.936 4.446 2.132l3.536-2.028c-1.534-2.444-4.472-4.16-7.956-4.16-5.356 0-9.542 4.212-9.542 9.49 0 5.226 4.108 9.438 9.828 9.438 5.096 0 8.97-3.38 8.97-8.944v-1.56zM147.803 9v7.098c0 1.846-.988 2.678-2.418 2.678-1.248 0-2.262-.754-2.262-2.366V9h-3.9v7.982c0 3.51 2.236 5.382 4.862 5.382 1.716 0 3.016-.624 3.718-1.586V22h3.9V9h-3.9zm8.21-1.144a2.364 2.364 0 002.34-2.34 2.364 2.364 0 00-2.34-2.34 2.364 2.364 0 00-2.34 2.34 2.364 2.364 0 002.34 2.34zM154.063 22h3.9V9h-3.9v13zm15.692-18.2v6.422c-.858-.988-2.132-1.586-3.874-1.586-3.406 0-6.214 2.99-6.214 6.864 0 3.874 2.808 6.864 6.214 6.864 1.742 0 3.016-.598 3.874-1.586V22h3.9V3.8h-3.9zm-3.094 14.872c-1.794 0-3.094-1.222-3.094-3.172 0-1.95 1.3-3.172 3.094-3.172 1.794 0 3.094 1.222 3.094 3.172 0 1.95-1.3 3.172-3.094 3.172zM179.5 17.06h9.23a7.558 7.558 0 00.156-1.56c0-3.926-2.808-6.864-6.604-6.864-4.108 0-6.916 2.99-6.916 6.864 0 3.874 2.756 6.864 7.202 6.864 2.47 0 4.394-.91 5.668-2.678l-3.12-1.794c-.52.572-1.43.988-2.496.988-1.43 0-2.626-.468-3.12-1.82zm-.078-2.912c.364-1.326 1.352-2.054 2.834-2.054 1.17 0 2.34.546 2.756 2.054h-5.59z"/><path fill="#F2C94C" fill-rule="evenodd" d="M1 0H0v9.47h2V2h7.47V0H1zm38.793 1V0h-9.47v2h7.47v7.47h2V1zM0 26.11h9.47v-2H2v-7.471H0v9.47zm39.793-1v1h-9.47v-2h7.47v-7.471h2v8.47z" clip-rule="evenodd"/><path fill="url(#paint0_linear)" fill-rule="evenodd" d="M1 0H0v9.47h2V2h7.47V0H1zm38.793 1V0h-9.47v2h7.47v7.47h2V1zM0 26.11h9.47v-2H2v-7.471H0v9.47zm39.793-1v1h-9.47v-2h7.47v-7.471h2v8.47z" clip-rule="evenodd"/><path fill="#F2C94C" d="M19.708 4.91a8.21 8.21 0 014.73 1.49l-1.272 1.28a6.46 6.46 0 00-3.458-.997 6.463 6.463 0 00-3.766 1.204l-1.26-1.268a8.213 8.213 0 015.026-1.71z"/><path fill="url(#paint1_linear)" d="M19.708 4.91a8.21 8.21 0 014.73 1.49l-1.272 1.28a6.46 6.46 0 00-3.458-.997 6.463 6.463 0 00-3.766 1.204l-1.26-1.268a8.213 8.213 0 015.026-1.71z"/><path fill="#F2C94C" d="M13.124 8.186a8.33 8.33 0 00-1.698 5.057c0 1.77.547 3.41 1.482 4.759l1.271-1.28a6.56 6.56 0 01-.991-3.479c0-1.411.443-2.719 1.197-3.789l-1.26-1.268z"/><path fill="url(#paint2_linear)" d="M13.124 8.186a8.33 8.33 0 00-1.698 5.057c0 1.77.547 3.41 1.482 4.759l1.271-1.28a6.56 6.56 0 01-.991-3.479c0-1.411.443-2.719 1.197-3.789l-1.26-1.268z"/><path fill="#F2C94C" d="M23.474 18.6a6.463 6.463 0 01-3.766 1.204 6.467 6.467 0 01-4.059-1.426l-1.252 1.26a8.218 8.218 0 005.311 1.94c1.89 0 3.632-.638 5.026-1.71l-1.26-1.268z"/><path fill="url(#paint3_linear)" d="M23.474 18.6a6.463 6.463 0 01-3.766 1.204 6.467 6.467 0 01-4.059-1.426l-1.252 1.26a8.218 8.218 0 005.311 1.94c1.89 0 3.632-.638 5.026-1.71l-1.26-1.268z"/><path fill="#F2C94C" d="M26.292 18.3a8.33 8.33 0 001.699-5.057A8.332 8.332 0 0026.064 7.9l-1.253 1.26a6.558 6.558 0 011.417 4.084 6.558 6.558 0 01-1.197 3.79l1.26 1.268z"/><path fill="url(#paint4_linear)" d="M26.292 18.3a8.33 8.33 0 001.699-5.057A8.332 8.332 0 0026.064 7.9l-1.253 1.26a6.558 6.558 0 011.417 4.084 6.558 6.558 0 01-1.197 3.79l1.26 1.268z"/><path fill="#F2C94C" d="M21.91 13.243a2.21 2.21 0 01-2.202 2.217 2.21 2.21 0 01-2.203-2.217 2.21 2.21 0 012.203-2.216 2.21 2.21 0 012.203 2.216z"/><path fill="url(#paint5_linear)" d="M21.91 13.243a2.21 2.21 0 01-2.202 2.217 2.21 2.21 0 01-2.203-2.217 2.21 2.21 0 012.203-2.216 2.21 2.21 0 012.203 2.216z"/><defs><linearGradient id="paint0_linear" x1="0" x2="27.655" y1="0" y2="35.739" gradientUnits="userSpaceOnUse"><stop stop-color="#fff" stop-opacity=".5"/><stop offset="1" stop-color="#fff" stop-opacity=".1"/></linearGradient><linearGradient id="paint1_linear" x1="11.426" x2="29.4" y1="4.91" y2="20.056" gradientUnits="userSpaceOnUse"><stop stop-color="#fff" stop-opacity=".5"/><stop offset="1" stop-color="#fff" stop-opacity=".1"/></linearGradient><linearGradient id="paint2_linear" x1="11.426" x2="29.4" y1="4.91" y2="20.056" gradientUnits="userSpaceOnUse"><stop stop-color="#fff" stop-opacity=".5"/><stop offset="1" stop-color="#fff" stop-opacity=".1"/></linearGradient><linearGradient id="paint3_linear" x1="11.426" x2="29.4" y1="4.91" y2="20.056" gradientUnits="userSpaceOnUse"><stop stop-color="#fff" stop-opacity=".5"/><stop offset="1" stop-color="#fff" stop-opacity=".1"/></linearGradient><linearGradient id="paint4_linear" x1="11.426" x2="29.4" y1="4.91" y2="20.056" gradientUnits="userSpaceOnUse"><stop stop-color="#fff" stop-opacity=".5"/><stop offset="1" stop-color="#fff" stop-opacity=".1"/></linearGradient><linearGradient id="paint5_linear" x1="11.426" x2="29.4" y1="4.91" y2="20.056" gradientUnits="userSpaceOnUse"><stop stop-color="#fff" stop-opacity=".5"/><stop offset="1" stop-color="#fff" stop-opacity=".1"/></linearGradient></defs></svg>
